<?xml version="1.0" encoding="UTF-8" standalone="no"?>
<!DOCTYPE svg PUBLIC "-//W3C//DTD SVG 1.1//EN"
 "http://www.w3.org/Graphics/SVG/1.1/DTD/svg11.dtd">
<!-- Generated by graphviz version 2.43.0 (0)
 -->
<!-- Title: PDF_A11y_Architektur Pages: 1 -->
<svg width="1722pt" height="1238pt"
 viewBox="0.00 0.00 1722.31 1238.00" xmlns="http://www.w3.org/2000/svg" xmlns:xlink="http://www.w3.org/1999/xlink">
<g id="graph0" class="graph" transform="scale(1 1) rotate(0) translate(4 1234)">
<title>PDF_A11y_Architektur</title>
<g id="clust1" class="cluster">
<title>cluster_domain</title>
<polygon fill="transparent" stroke="#2ca02c" stroke-dasharray="5,2" points="551.23,-610 551.23,-936 751.75,-936 751.75,-610 551.23,-610"/>
<text text-anchor="middle" x="651.49" y="-922.4" font-family="Arial bold" font-size="12.00" fill="#2ca02c">Domain Layer (Core Rules)</text>
</g>
<g id="clust2" class="cluster">
<title>cluster_app</title>
<polygon fill="transparent" stroke="#83b818" stroke-dasharray="5,2" points="227,-958 227,-1126 442.23,-1126 442.23,-958 227,-958"/>
<text text-anchor="middle" x="334.61" y="-1112.4" font-family="Arial bold" font-size="12.00" fill="#83b818">Application Layer (Use Cases)</text>
</g>
<g id="clust3" class="cluster">
<title>cluster_plugins</title>
<polygon fill="transparent" stroke="#e2a929" stroke-dasharray="5,2" points="8,-8 8,-950 405.11,-950 405.11,-8 8,-8"/>
<text text-anchor="middle" x="206.56" y="-936.4" font-family="Arial bold" font-size="12.00" fill="#e2a929">Plugins Layer (Isolated Venvs)</text>
</g>
<g id="clust4" class="cluster">
<title>cluster_infra</title>
<polygon fill="transparent" stroke="#6a0dad" stroke-dasharray="5,2" points="867.75,-1054 867.75,-1222 1531.31,-1222 1531.31,-1054 867.75,-1054"/>
<text text-anchor="middle" x="1199.53" y="-1208.4" font-family="Arial bold" font-size="12.00" fill="#6a0dad">Infrastructure Layer</text>
</g>
<!-- User -->
<g id="node1" class="node">
<title>User</title>
<path fill="#2b5e8f" stroke="#333333" d="M95.5,-1155C95.5,-1155 49.5,-1155 49.5,-1155 43.5,-1155 37.5,-1149 37.5,-1143 37.5,-1143 37.5,-1131 37.5,-1131 37.5,-1125 43.5,-1119 49.5,-1119 49.5,-1119 95.5,-1119 95.5,-1119 101.5,-1119 107.5,-1125 107.5,-1131 107.5,-1131 107.5,-1143 107.5,-1143 107.5,-1149 101.5,-1155 95.5,-1155"/>
<text text-anchor="middle" x="72.5" y="-1140.2" font-family="Arial" font-size="11.00" fill="white">Benutzer</text>
<text text-anchor="middle" x="72.5" y="-1128.2" font-family="Arial" font-size="11.00" fill="white">(GUI / CLI)</text>
</g>
<!-- Orchestrator -->
<g id="node6" class="node">
<title>Orchestrator</title>
<path fill="#83b818" stroke="#333333" d="M423.72,-1076.59C423.72,-1076.59 395.09,-1091.67 395.09,-1091.67 389.78,-1094.46 378.48,-1097.26 372.48,-1097.26 372.48,-1097.26 296.75,-1097.26 296.75,-1097.26 290.75,-1097.26 279.44,-1094.46 274.13,-1091.67 274.13,-1091.67 245.51,-1076.59 245.51,-1076.59 240.2,-1073.8 240.2,-1068.2 245.51,-1065.41 245.51,-1065.41 274.13,-1050.33 274.13,-1050.33 279.44,-1047.54 290.75,-1044.74 296.75,-1044.74 296.75,-1044.74 372.48,-1044.74 372.48,-1044.74 378.48,-1044.74 389.78,-1047.54 395.09,-1050.33 395.09,-1050.33 423.72,-1065.41 423.72,-1065.41 429.03,-1068.2 429.03,-1073.8 423.72,-1076.59"/>
<text text-anchor="middle" x="334.61" y="-1074.2" font-family="Arial" font-size="11.00" fill="white">SemanticOrchestrator</text>
<text text-anchor="middle" x="334.61" y="-1062.2" font-family="Arial" font-size="11.00" fill="white">[Workflow &amp; Audit]</text>
</g>
<!-- User&#45;&gt;Orchestrator -->
<g id="edge13" class="edge">
<title>User&#45;&gt;Orchestrator</title>
<path fill="none" stroke="black" d="M73.31,-1118.87C73.31,-1102.09 73.31,-1079.71 73.31,-1079.71 73.31,-1079.71 241.22,-1079.71 241.22,-1079.71"/>
<polygon fill="black" stroke="black" points="241.22,-1083.21 251.22,-1079.71 241.22,-1076.21 241.22,-1083.21"/>
</g>
<!-- VSR -->
<g id="node24" class="node">
<title>VSR</title>
<path fill="#4a6b74" stroke="#333333" d="M1080.3,-1093.26C1080.3,-1093.26 1048.09,-1108.99 1048.09,-1108.99 1042.7,-1111.62 1031.31,-1114.26 1025.31,-1114.26 1025.31,-1114.26 941.75,-1114.26 941.75,-1114.26 935.75,-1114.26 924.36,-1111.62 918.97,-1108.99 918.97,-1108.99 886.76,-1093.26 886.76,-1093.26 881.37,-1090.63 881.37,-1085.37 886.76,-1082.74 886.76,-1082.74 918.97,-1067.01 918.97,-1067.01 924.36,-1064.38 935.75,-1061.74 941.75,-1061.74 941.75,-1061.74 1025.31,-1061.74 1025.31,-1061.74 1031.31,-1061.74 1042.7,-1064.38 1048.09,-1067.01 1048.09,-1067.01 1080.3,-1082.74 1080.3,-1082.74 1085.69,-1085.37 1085.69,-1090.63 1080.3,-1093.26"/>
<text text-anchor="middle" x="983.53" y="-1091.2" font-family="Arial" font-size="11.00" fill="white">VSR Engine</text>
<text text-anchor="middle" x="983.53" y="-1079.2" font-family="Arial" font-size="11.00" fill="white">[StructTreeRoot Parser]</text>
</g>
<!-- User&#45;&gt;VSR -->
<g id="edge36" class="edge">
<title>User&#45;&gt;VSR</title>
<path fill="none" stroke="black" stroke-dasharray="5,2" d="M107.71,-1127.67C266.03,-1127.67 904.31,-1127.67 904.31,-1127.67 904.31,-1127.67 904.31,-1111.87 904.31,-1111.87"/>
<polygon fill="black" stroke="black" points="907.81,-1111.87 904.31,-1101.87 900.81,-1111.87 907.81,-1111.87"/>
<text text-anchor="middle" x="496.73" y="-1164.8" font-family="Times,serif" font-size="9.00"> Trigger</text>
</g>
<!-- CoordAdapter -->
<g id="node2" class="node">
<title>CoordAdapter</title>
<path fill="#2ca02c" stroke="#333333" d="M706.49,-654C706.49,-654 596.49,-654 596.49,-654 590.49,-654 584.49,-648 584.49,-642 584.49,-642 584.49,-630 584.49,-630 584.49,-624 590.49,-618 596.49,-618 596.49,-618 706.49,-618 706.49,-618 712.49,-618 718.49,-624 718.49,-630 718.49,-630 718.49,-642 718.49,-642 718.49,-648 712.49,-654 706.49,-654"/>
<text text-anchor="middle" x="651.49" y="-639.2" font-family="Arial" font-size="11.00" fill="white">CoordinateAdapter</text>
<text text-anchor="middle" x="651.49" y="-627.2" font-family="Arial" font-size="11.00" fill="white">[Fail&#45;Fast Normalization]</text>
</g>
<!-- DOMTransformer -->
<g id="node7" class="node">
<title>DOMTransformer</title>
<path fill="#83b818" stroke="#333333" d="M373.11,-1002C373.11,-1002 296.11,-1002 296.11,-1002 290.11,-1002 284.11,-996 284.11,-990 284.11,-990 284.11,-978 284.11,-978 284.11,-972 290.11,-966 296.11,-966 296.11,-966 373.11,-966 373.11,-966 379.11,-966 385.11,-972 385.11,-978 385.11,-978 385.11,-990 385.11,-990 385.11,-996 379.11,-1002 373.11,-1002"/>
<text text-anchor="middle" x="334.61" y="-987.2" font-family="Arial" font-size="11.00" fill="white">DOMTransformer</text>
<text text-anchor="middle" x="334.61" y="-975.2" font-family="Arial" font-size="11.00" fill="white">[Sensor Fusion]</text>
</g>
<!-- CoordAdapter&#45;&gt;DOMTransformer -->
<g id="edge27" class="edge">
<title>CoordAdapter&#45;&gt;DOMTransformer</title>
<path fill="none" stroke="black" d="M584.31,-643C542.76,-643 497.31,-643 497.31,-643 497.31,-643 497.31,-976 497.31,-976 497.31,-976 395.2,-976 395.2,-976"/>
<polygon fill="black" stroke="black" points="395.2,-972.5 385.2,-976 395.2,-979.5 395.2,-972.5"/>
<text text-anchor="middle" x="496.73" y="-855.8" font-family="Times,serif" font-size="9.00"> Normalized BBox</text>
</g>
<!-- SpatialMatcher -->
<g id="node3" class="node">
<title>SpatialMatcher</title>
<path fill="#2ca02c" stroke="#333333" d="M698.99,-733C698.99,-733 603.99,-733 603.99,-733 597.99,-733 591.99,-727 591.99,-721 591.99,-721 591.99,-709 591.99,-709 591.99,-703 597.99,-697 603.99,-697 603.99,-697 698.99,-697 698.99,-697 704.99,-697 710.99,-703 710.99,-709 710.99,-709 710.99,-721 710.99,-721 710.99,-727 704.99,-733 698.99,-733"/>
<text text-anchor="middle" x="651.49" y="-718.2" font-family="Arial" font-size="11.00" fill="white">SpatialMatcher</text>
<text text-anchor="middle" x="651.49" y="-706.2" font-family="Arial" font-size="11.00" fill="white">[Bipartite Text&#45;Aware]</text>
</g>
<!-- ConstraintSolver -->
<g id="node4" class="node">
<title>ConstraintSolver</title>
<path fill="#2ca02c" stroke="#333333" d="M692.99,-907C692.99,-907 609.99,-907 609.99,-907 603.99,-907 597.99,-901 597.99,-895 597.99,-895 597.99,-883 597.99,-883 597.99,-877 603.99,-871 609.99,-871 609.99,-871 692.99,-871 692.99,-871 698.99,-871 704.99,-877 704.99,-883 704.99,-883 704.99,-895 704.99,-895 704.99,-901 698.99,-907 692.99,-907"/>
<text text-anchor="middle" x="651.49" y="-892.2" font-family="Arial" font-size="11.00" fill="white">ConstraintSolver</text>
<text text-anchor="middle" x="651.49" y="-880.2" font-family="Arial" font-size="11.00" fill="white">[BBox Subtraction]</text>
</g>
<!-- LayoutGraph -->
<g id="node5" class="node">
<title>LayoutGraph</title>
<path fill="#2ca02c" stroke="#333333" d="M733.1,-807.95C733.1,-807.95 707.93,-822.31 707.93,-822.31 702.71,-825.28 691.5,-828.26 685.5,-828.26 685.5,-828.26 617.47,-828.26 617.47,-828.26 611.47,-828.26 600.26,-825.28 595.05,-822.31 595.05,-822.31 569.88,-807.95 569.88,-807.95 564.67,-804.97 564.67,-799.03 569.88,-796.05 569.88,-796.05 595.05,-781.69 595.05,-781.69 600.26,-778.72 611.47,-775.74 617.47,-775.74 617.47,-775.74 685.5,-775.74 685.5,-775.74 691.5,-775.74 702.71,-778.72 707.93,-781.69 707.93,-781.69 733.1,-796.05 733.1,-796.05 738.31,-799.03 738.31,-804.97 733.1,-807.95"/>
<text text-anchor="middle" x="651.49" y="-805.2" font-family="Arial" font-size="11.00" fill="white">LayoutGraph Model</text>
<text text-anchor="middle" x="651.49" y="-793.2" font-family="Arial" font-size="11.00" fill="white">[Topological XY&#45;Cut]</text>
</g>
<!-- Repair -->
<g id="node21" class="node">
<title>Repair</title>
<path fill="#d4e1f9" stroke="#333333" d="M1023.03,-1193C1023.03,-1193 944.03,-1193 944.03,-1193 938.03,-1193 932.03,-1187 932.03,-1181 932.03,-1181 932.03,-1169 932.03,-1169 932.03,-1163 938.03,-1157 944.03,-1157 944.03,-1157 1023.03,-1157 1023.03,-1157 1029.03,-1157 1035.03,-1163 1035.03,-1169 1035.03,-1169 1035.03,-1181 1035.03,-1181 1035.03,-1187 1029.03,-1193 1023.03,-1193"/>
<text text-anchor="middle" x="983.53" y="-1178.2" font-family="Arial" font-size="11.00">Repair Facade</text>
<text text-anchor="middle" x="983.53" y="-1166.2" font-family="Arial" font-size="11.00">[PyMuPDF Fonts]</text>
</g>
<!-- LayoutGraph&#45;&gt;Repair -->
<g id="edge31" class="edge">
<title>LayoutGraph&#45;&gt;Repair</title>
<path fill="none" stroke="black" d="M725.31,-812.76C725.31,-873.92 725.31,-1175 725.31,-1175 725.31,-1175 921.9,-1175 921.9,-1175"/>
<polygon fill="black" stroke="black" points="921.9,-1178.5 931.9,-1175 921.9,-1171.5 921.9,-1178.5"/>
<text text-anchor="middle" x="809.75" y="-1104.8" font-family="Times,serif" font-size="9.00"> Sorted SpatialDOM</text>
</g>
<!-- PluginManager -->
<g id="node8" class="node">
<title>PluginManager</title>
<path fill="#d4af37" stroke="#333333" d="M117,-526C117,-526 28,-526 28,-526 22,-526 16,-520 16,-514 16,-514 16,-502 16,-502 16,-496 22,-490 28,-490 28,-490 117,-490 117,-490 123,-490 129,-496 129,-502 129,-502 129,-514 129,-514 129,-520 123,-526 117,-526"/>
<text text-anchor="middle" x="72.5" y="-511.2" font-family="Arial" font-size="11.00" fill="white">Plugin Manager</text>
<text text-anchor="middle" x="72.5" y="-499.2" font-family="Arial" font-size="11.00" fill="white">[Manifest Discovery]</text>
</g>
<!-- Orchestrator&#45;&gt;PluginManager -->
<g id="edge14" class="edge">
<title>Orchestrator&#45;&gt;PluginManager</title>
<path fill="none" stroke="black" d="M251.14,-1062.29C187.72,-1062.29 111.31,-1062.29 111.31,-1062.29 111.31,-1062.29 111.31,-536.13 111.31,-536.13"/>
<polygon fill="black" stroke="black" points="114.81,-536.13 111.31,-526.13 107.81,-536.13 114.81,-536.13"/>
<text text-anchor="middle" x="182" y="-960.8" font-family="Times,serif" font-size="9.00"> Map/Reduce</text>
</g>
<!-- AuditLog -->
<g id="node26" class="node">
<title>AuditLog</title>
<polygon fill="#555555" stroke="#333333" points="681.99,-1089 614.99,-1089 614.99,-1053 687.99,-1053 687.99,-1083 681.99,-1089"/>
<polyline fill="none" stroke="#333333" points="681.99,-1089 681.99,-1083 "/>
<polyline fill="none" stroke="#333333" points="687.99,-1083 681.99,-1083 "/>
<text text-anchor="middle" x="651.49" y="-1074.2" font-family="Arial" font-size="11.00" fill="white">Audit Trail</text>
<text text-anchor="middle" x="651.49" y="-1062.2" font-family="Arial" font-size="11.00" fill="white">[JSON Log]</text>
</g>
<!-- Orchestrator&#45;&gt;AuditLog -->
<g id="edge35" class="edge">
<title>Orchestrator&#45;&gt;AuditLog</title>
<path fill="none" stroke="black" stroke-dasharray="5,2" d="M434.44,-1071C434.44,-1071 604.96,-1071 604.96,-1071"/>
<polygon fill="black" stroke="black" points="604.96,-1074.5 614.96,-1071 604.96,-1067.5 604.96,-1074.5"/>
<text text-anchor="middle" x="496.73" y="-1073.8" font-family="Times,serif" font-size="9.00"> Status Log</text>
</g>
<!-- DOMTransformer&#45;&gt;SpatialMatcher -->
<g id="edge28" class="edge">
<title>DOMTransformer&#45;&gt;SpatialMatcher</title>
<path fill="none" stroke="black" stroke-dasharray="1,5" d="M385.37,-971C387.84,-971 389.31,-971 389.31,-971 389.31,-971 389.31,-712 389.31,-712 389.31,-712 581.67,-712 581.67,-712"/>
<polygon fill="black" stroke="black" points="581.67,-715.5 591.67,-712 581.67,-708.5 581.67,-715.5"/>
</g>
<!-- DOMTransformer&#45;&gt;ConstraintSolver -->
<g id="edge29" class="edge">
<title>DOMTransformer&#45;&gt;ConstraintSolver</title>
<path fill="none" stroke="black" stroke-dasharray="1,5" d="M385.27,-986C464.13,-986 607.31,-986 607.31,-986 607.31,-986 607.31,-917.24 607.31,-917.24"/>
<polygon fill="black" stroke="black" points="610.81,-917.24 607.31,-907.24 603.81,-917.24 610.81,-917.24"/>
</g>
<!-- DOMTransformer&#45;&gt;LayoutGraph -->
<g id="edge30" class="edge">
<title>DOMTransformer&#45;&gt;LayoutGraph</title>
<path fill="none" stroke="black" d="M385.31,-981C456.99,-981 579.31,-981 579.31,-981 579.31,-981 579.31,-823.47 579.31,-823.47"/>
<polygon fill="black" stroke="black" points="582.81,-823.47 579.31,-813.47 575.81,-823.47 582.81,-823.47"/>
<text text-anchor="middle" x="496.73" y="-962.8" font-family="Times,serif" font-size="9.00"> Fusion</text>
</g>
<!-- caption_worker -->
<g id="node9" class="node">
<title>caption_worker</title>
<path fill="#e2a929" stroke="#333333" d="M371.61,-842C371.61,-842 297.61,-842 297.61,-842 291.61,-842 285.61,-836 285.61,-830 285.61,-830 285.61,-818 285.61,-818 285.61,-812 291.61,-806 297.61,-806 297.61,-806 371.61,-806 371.61,-806 377.61,-806 383.61,-812 383.61,-818 383.61,-818 383.61,-830 383.61,-830 383.61,-836 377.61,-842 371.61,-842"/>
<text text-anchor="middle" x="334.61" y="-827.2" font-family="Arial" font-size="11.00">Caption</text>
<text text-anchor="middle" x="334.61" y="-815.2" font-family="Arial" font-size="11.00">[run_captions.py]</text>
</g>
<!-- PluginManager&#45;&gt;caption_worker -->
<g id="edge1" class="edge">
<title>PluginManager&#45;&gt;caption_worker</title>
<path fill="none" stroke="black" stroke-dasharray="1,5" d="M117.31,-526.36C117.31,-593.8 117.31,-824 117.31,-824 117.31,-824 275.57,-824 275.57,-824"/>
<polygon fill="black" stroke="black" points="275.57,-827.5 285.57,-824 275.57,-820.5 275.57,-827.5"/>
</g>
<!-- column_worker -->
<g id="node10" class="node">
<title>column_worker</title>
<path fill="#e2a929" stroke="#333333" d="M371.61,-763C371.61,-763 297.61,-763 297.61,-763 291.61,-763 285.61,-757 285.61,-751 285.61,-751 285.61,-739 285.61,-739 285.61,-733 291.61,-727 297.61,-727 297.61,-727 371.61,-727 371.61,-727 377.61,-727 383.61,-733 383.61,-739 383.61,-739 383.61,-751 383.61,-751 383.61,-757 377.61,-763 371.61,-763"/>
<text text-anchor="middle" x="334.61" y="-748.2" font-family="Arial" font-size="11.00">Column</text>
<text text-anchor="middle" x="334.61" y="-736.2" font-family="Arial" font-size="11.00">[run_columns.py]</text>
</g>
<!-- PluginManager&#45;&gt;column_worker -->
<g id="edge2" class="edge">
<title>PluginManager&#45;&gt;column_worker</title>
<path fill="none" stroke="black" stroke-dasharray="1,5" d="M120.31,-526.2C120.31,-581.7 120.31,-745 120.31,-745 120.31,-745 275.45,-745 275.45,-745"/>
<polygon fill="black" stroke="black" points="275.45,-748.5 285.45,-745 275.45,-741.5 275.45,-748.5"/>
</g>
<!-- footnote_worker -->
<g id="node11" class="node">
<title>footnote_worker</title>
<path fill="#e2a929" stroke="#333333" d="M371.61,-684C371.61,-684 297.61,-684 297.61,-684 291.61,-684 285.61,-678 285.61,-672 285.61,-672 285.61,-660 285.61,-660 285.61,-654 291.61,-648 297.61,-648 297.61,-648 371.61,-648 371.61,-648 377.61,-648 383.61,-654 383.61,-660 383.61,-660 383.61,-672 383.61,-672 383.61,-678 377.61,-684 371.61,-684"/>
<text text-anchor="middle" x="334.61" y="-669.2" font-family="Arial" font-size="11.00">Footnote</text>
<text text-anchor="middle" x="334.61" y="-657.2" font-family="Arial" font-size="11.00">[run_footnote.py]</text>
</g>
<!-- PluginManager&#45;&gt;footnote_worker -->
<g id="edge3" class="edge">
<title>PluginManager&#45;&gt;footnote_worker</title>
<path fill="none" stroke="black" stroke-dasharray="1,5" d="M123.31,-526.12C123.31,-567.63 123.31,-666 123.31,-666 123.31,-666 275.6,-666 275.6,-666"/>
<polygon fill="black" stroke="black" points="275.6,-669.5 285.6,-666 275.6,-662.5 275.6,-669.5"/>
</g>
<!-- form_worker -->
<g id="node12" class="node">
<title>form_worker</title>
<path fill="#e2a929" stroke="#333333" d="M365.61,-605C365.61,-605 303.61,-605 303.61,-605 297.61,-605 291.61,-599 291.61,-593 291.61,-593 291.61,-581 291.61,-581 291.61,-575 297.61,-569 303.61,-569 303.61,-569 365.61,-569 365.61,-569 371.61,-569 377.61,-575 377.61,-581 377.61,-581 377.61,-593 377.61,-593 377.61,-599 371.61,-605 365.61,-605"/>
<text text-anchor="middle" x="334.61" y="-590.2" font-family="Arial" font-size="11.00">Form</text>
<text text-anchor="middle" x="334.61" y="-578.2" font-family="Arial" font-size="11.00">[run_forms.py]</text>
</g>
<!-- PluginManager&#45;&gt;form_worker -->
<g id="edge4" class="edge">
<title>PluginManager&#45;&gt;form_worker</title>
<path fill="none" stroke="black" stroke-dasharray="1,5" d="M126.31,-526.32C126.31,-549.66 126.31,-587 126.31,-587 126.31,-587 281.45,-587 281.45,-587"/>
<polygon fill="black" stroke="black" points="281.45,-590.5 291.45,-587 281.45,-583.5 281.45,-590.5"/>
</g>
<!-- formula_worker -->
<g id="node13" class="node">
<title>formula_worker</title>
<path fill="#e2a929" stroke="#333333" d="M370.11,-526C370.11,-526 299.11,-526 299.11,-526 293.11,-526 287.11,-520 287.11,-514 287.11,-514 287.11,-502 287.11,-502 287.11,-496 293.11,-490 299.11,-490 299.11,-490 370.11,-490 370.11,-490 376.11,-490 382.11,-496 382.11,-502 382.11,-502 382.11,-514 382.11,-514 382.11,-520 376.11,-526 370.11,-526"/>
<text text-anchor="middle" x="334.61" y="-511.2" font-family="Arial" font-size="11.00">Formula</text>
<text text-anchor="middle" x="334.61" y="-499.2" font-family="Arial" font-size="11.00">[run_formula.py]</text>
</g>
<!-- PluginManager&#45;&gt;formula_worker -->
<g id="edge5" class="edge">
<title>PluginManager&#45;&gt;formula_worker</title>
<path fill="none" stroke="black" stroke-dasharray="1,5" d="M129.05,-514C129.05,-514 276.94,-514 276.94,-514"/>
<polygon fill="black" stroke="black" points="276.94,-517.5 286.94,-514 276.94,-510.5 276.94,-517.5"/>
</g>
<!-- header_footer_worker -->
<g id="node14" class="node">
<title>header_footer_worker</title>
<path fill="#e2a929" stroke="#333333" d="M385.11,-447C385.11,-447 284.11,-447 284.11,-447 278.11,-447 272.11,-441 272.11,-435 272.11,-435 272.11,-423 272.11,-423 272.11,-417 278.11,-411 284.11,-411 284.11,-411 385.11,-411 385.11,-411 391.11,-411 397.11,-417 397.11,-423 397.11,-423 397.11,-435 397.11,-435 397.11,-441 391.11,-447 385.11,-447"/>
<text text-anchor="middle" x="334.61" y="-432.2" font-family="Arial" font-size="11.00">Header Footer</text>
<text text-anchor="middle" x="334.61" y="-420.2" font-family="Arial" font-size="11.00">[run_header_footer.py]</text>
</g>
<!-- PluginManager&#45;&gt;header_footer_worker -->
<g id="edge6" class="edge">
<title>PluginManager&#45;&gt;header_footer_worker</title>
<path fill="none" stroke="black" stroke-dasharray="1,5" d="M129.01,-502C189.94,-502 278.31,-502 278.31,-502 278.31,-502 278.31,-457.04 278.31,-457.04"/>
<polygon fill="black" stroke="black" points="281.81,-457.04 278.31,-447.04 274.81,-457.04 281.81,-457.04"/>
</g>
<!-- layout_worker_docling -->
<g id="node15" class="node">
<title>layout_worker_docling</title>
<path fill="#e2a929" stroke="#333333" d="M368.61,-368C368.61,-368 300.61,-368 300.61,-368 294.61,-368 288.61,-362 288.61,-356 288.61,-356 288.61,-344 288.61,-344 288.61,-338 294.61,-332 300.61,-332 300.61,-332 368.61,-332 368.61,-332 374.61,-332 380.61,-338 380.61,-344 380.61,-344 380.61,-356 380.61,-356 380.61,-362 374.61,-368 368.61,-368"/>
<text text-anchor="middle" x="334.61" y="-353.2" font-family="Arial" font-size="11.00">Layout Docling</text>
<text text-anchor="middle" x="334.61" y="-341.2" font-family="Arial" font-size="11.00">[run_docling.py]</text>
</g>
<!-- PluginManager&#45;&gt;layout_worker_docling -->
<g id="edge7" class="edge">
<title>PluginManager&#45;&gt;layout_worker_docling</title>
<path fill="none" stroke="black" stroke-dasharray="1,5" d="M110.31,-489.88C110.31,-448.37 110.31,-350 110.31,-350 110.31,-350 278.41,-350 278.41,-350"/>
<polygon fill="black" stroke="black" points="278.41,-353.5 288.41,-350 278.41,-346.5 278.41,-353.5"/>
</g>
<!-- layout_worker_marker -->
<g id="node16" class="node">
<title>layout_worker_marker</title>
<path fill="#e2a929" stroke="#333333" d="M368.61,-289C368.61,-289 300.61,-289 300.61,-289 294.61,-289 288.61,-283 288.61,-277 288.61,-277 288.61,-265 288.61,-265 288.61,-259 294.61,-253 300.61,-253 300.61,-253 368.61,-253 368.61,-253 374.61,-253 380.61,-259 380.61,-265 380.61,-265 380.61,-277 380.61,-277 380.61,-283 374.61,-289 368.61,-289"/>
<text text-anchor="middle" x="334.61" y="-274.2" font-family="Arial" font-size="11.00">Layout Marker</text>
<text text-anchor="middle" x="334.61" y="-262.2" font-family="Arial" font-size="11.00">[run_marker.py]</text>
</g>
<!-- PluginManager&#45;&gt;layout_worker_marker -->
<g id="edge8" class="edge">
<title>PluginManager&#45;&gt;layout_worker_marker</title>
<path fill="none" stroke="black" stroke-dasharray="1,5" d="M92.31,-489.8C92.31,-434.3 92.31,-271 92.31,-271 92.31,-271 278.47,-271 278.47,-271"/>
<polygon fill="black" stroke="black" points="278.47,-274.5 288.47,-271 278.47,-267.5 278.47,-274.5"/>
</g>
<!-- signature_worker -->
<g id="node17" class="node">
<title>signature_worker</title>
<path fill="#e2a929" stroke="#333333" d="M376.61,-210C376.61,-210 292.61,-210 292.61,-210 286.61,-210 280.61,-204 280.61,-198 280.61,-198 280.61,-186 280.61,-186 280.61,-180 286.61,-174 292.61,-174 292.61,-174 376.61,-174 376.61,-174 382.61,-174 388.61,-180 388.61,-186 388.61,-186 388.61,-198 388.61,-198 388.61,-204 382.61,-210 376.61,-210"/>
<text text-anchor="middle" x="334.61" y="-195.2" font-family="Arial" font-size="11.00">Signature</text>
<text text-anchor="middle" x="334.61" y="-183.2" font-family="Arial" font-size="11.00">[run_signatures.py]</text>
</g>
<!-- PluginManager&#45;&gt;signature_worker -->
<g id="edge9" class="edge">
<title>PluginManager&#45;&gt;signature_worker</title>
<path fill="none" stroke="black" stroke-dasharray="1,5" d="M73.31,-489.64C73.31,-422.2 73.31,-192 73.31,-192 73.31,-192 270.47,-192 270.47,-192"/>
<polygon fill="black" stroke="black" points="270.47,-195.5 280.47,-192 270.47,-188.5 270.47,-195.5"/>
</g>
<!-- table_worker -->
<g id="node18" class="node">
<title>table_worker</title>
<path fill="#e2a929" stroke="#333333" d="M366.11,-131C366.11,-131 303.11,-131 303.11,-131 297.11,-131 291.11,-125 291.11,-119 291.11,-119 291.11,-107 291.11,-107 291.11,-101 297.11,-95 303.11,-95 303.11,-95 366.11,-95 366.11,-95 372.11,-95 378.11,-101 378.11,-107 378.11,-107 378.11,-119 378.11,-119 378.11,-125 372.11,-131 366.11,-131"/>
<text text-anchor="middle" x="334.61" y="-116.2" font-family="Arial" font-size="11.00">Table</text>
<text text-anchor="middle" x="334.61" y="-104.2" font-family="Arial" font-size="11.00">[run_tables.py]</text>
</g>
<!-- PluginManager&#45;&gt;table_worker -->
<g id="edge10" class="edge">
<title>PluginManager&#45;&gt;table_worker</title>
<path fill="none" stroke="black" stroke-dasharray="1,5" d="M54.31,-489.74C54.31,-412.06 54.31,-113 54.31,-113 54.31,-113 280.82,-113 280.82,-113"/>
<polygon fill="black" stroke="black" points="280.82,-116.5 290.82,-113 280.82,-109.5 280.82,-116.5"/>
</g>
<!-- translation_worker -->
<g id="node19" class="node">
<title>translation_worker</title>
<path fill="#e2a929" stroke="#333333" d="M376.61,-52C376.61,-52 292.61,-52 292.61,-52 286.61,-52 280.61,-46 280.61,-40 280.61,-40 280.61,-28 280.61,-28 280.61,-22 286.61,-16 292.61,-16 292.61,-16 376.61,-16 376.61,-16 382.61,-16 388.61,-22 388.61,-28 388.61,-28 388.61,-40 388.61,-40 388.61,-46 382.61,-52 376.61,-52"/>
<text text-anchor="middle" x="334.61" y="-37.2" font-family="Arial" font-size="11.00">Translation</text>
<text text-anchor="middle" x="334.61" y="-25.2" font-family="Arial" font-size="11.00">[run_translation.py]</text>
</g>
<!-- PluginManager&#45;&gt;translation_worker -->
<g id="edge11" class="edge">
<title>PluginManager&#45;&gt;translation_worker</title>
<path fill="none" stroke="black" stroke-dasharray="1,5" d="M35.31,-490C35.31,-403.42 35.31,-34 35.31,-34 35.31,-34 270.41,-34 270.41,-34"/>
<polygon fill="black" stroke="black" points="270.41,-37.5 280.41,-34 270.41,-30.5 270.41,-37.5"/>
</g>
<!-- vision_worker -->
<g id="node20" class="node">
<title>vision_worker</title>
<path fill="#e2a929" stroke="#333333" d="M365.61,-921C365.61,-921 303.61,-921 303.61,-921 297.61,-921 291.61,-915 291.61,-909 291.61,-909 291.61,-897 291.61,-897 291.61,-891 297.61,-885 303.61,-885 303.61,-885 365.61,-885 365.61,-885 371.61,-885 377.61,-891 377.61,-897 377.61,-897 377.61,-909 377.61,-909 377.61,-915 371.61,-921 365.61,-921"/>
<text text-anchor="middle" x="334.61" y="-906.2" font-family="Arial" font-size="11.00">Vision</text>
<text text-anchor="middle" x="334.61" y="-894.2" font-family="Arial" font-size="11.00">[run_vision.py]</text>
</g>
<!-- PluginManager&#45;&gt;vision_worker -->
<g id="edge12" class="edge">
<title>PluginManager&#45;&gt;vision_worker</title>
<path fill="none" stroke="black" stroke-dasharray="1,5" d="M114.31,-526.26C114.31,-603.94 114.31,-903 114.31,-903 114.31,-903 281.35,-903 281.35,-903"/>
<polygon fill="black" stroke="black" points="281.35,-906.5 291.35,-903 281.35,-899.5 281.35,-906.5"/>
</g>
<!-- caption_worker&#45;&gt;CoordAdapter -->
<g id="edge15" class="edge">
<title>caption_worker&#45;&gt;CoordAdapter</title>
<path fill="none" stroke="black" d="M383.83,-817.06C398.29,-817.06 410.31,-817.06 410.31,-817.06 410.31,-817.06 410.31,-633 410.31,-633 410.31,-633 574.31,-633 574.31,-633"/>
<polygon fill="black" stroke="black" points="574.31,-636.5 584.31,-633 574.31,-629.5 574.31,-636.5"/>
</g>
<!-- column_worker&#45;&gt;CoordAdapter -->
<g id="edge16" class="edge">
<title>column_worker&#45;&gt;CoordAdapter</title>
<path fill="none" stroke="black" d="M383.91,-748C458.22,-748 590.31,-748 590.31,-748 590.31,-748 590.31,-664.49 590.31,-664.49"/>
<polygon fill="black" stroke="black" points="593.81,-664.49 590.31,-654.49 586.81,-664.49 593.81,-664.49"/>
</g>
<!-- footnote_worker&#45;&gt;CoordAdapter -->
<g id="edge17" class="edge">
<title>footnote_worker&#45;&gt;CoordAdapter</title>
<path fill="none" stroke="black" d="M383.63,-669C457.12,-669 587.31,-669 587.31,-669 587.31,-669 587.31,-664.04 587.31,-664.04"/>
<polygon fill="black" stroke="black" points="590.81,-664.04 587.31,-654.04 583.81,-664.04 590.81,-664.04"/>
</g>
<!-- form_worker&#45;&gt;CoordAdapter -->
<g id="edge18" class="edge">
<title>form_worker&#45;&gt;CoordAdapter</title>
<path fill="none" stroke="black" d="M335.31,-605.1C335.31,-616.09 335.31,-628 335.31,-628 335.31,-628 574.44,-628 574.44,-628"/>
<polygon fill="black" stroke="black" points="574.44,-631.5 584.44,-628 574.44,-624.5 574.44,-631.5"/>
</g>
<!-- formula_worker&#45;&gt;CoordAdapter -->
<g id="edge19" class="edge">
<title>formula_worker&#45;&gt;CoordAdapter</title>
<path fill="none" stroke="black" d="M382.21,-508C459.63,-508 604.31,-508 604.31,-508 604.31,-508 604.31,-607.93 604.31,-607.93"/>
<polygon fill="black" stroke="black" points="600.81,-607.93 604.31,-617.93 607.81,-607.93 600.81,-607.93"/>
</g>
<!-- header_footer_worker&#45;&gt;CoordAdapter -->
<g id="edge20" class="edge">
<title>header_footer_worker&#45;&gt;CoordAdapter</title>
<path fill="none" stroke="black" d="M393.31,-447.25C393.31,-495.54 393.31,-623 393.31,-623 393.31,-623 574.33,-623 574.33,-623"/>
<polygon fill="black" stroke="black" points="574.33,-626.5 584.33,-623 574.33,-619.5 574.33,-626.5"/>
</g>
<!-- layout_worker_docling&#45;&gt;CoordAdapter -->
<g id="edge21" class="edge">
<title>layout_worker_docling&#45;&gt;CoordAdapter</title>
<path fill="none" stroke="black" d="M380.68,-350C462.18,-350 623.31,-350 623.31,-350 623.31,-350 623.31,-607.67 623.31,-607.67"/>
<polygon fill="black" stroke="black" points="619.81,-607.67 623.31,-617.67 626.81,-607.67 619.81,-607.67"/>
</g>
<!-- layout_worker_marker&#45;&gt;CoordAdapter -->
<g id="edge22" class="edge">
<title>layout_worker_marker&#45;&gt;CoordAdapter</title>
<path fill="none" stroke="black" d="M380.68,-271C466.51,-271 642.31,-271 642.31,-271 642.31,-271 642.31,-607.9 642.31,-607.9"/>
<polygon fill="black" stroke="black" points="638.81,-607.9 642.31,-617.9 645.81,-607.9 638.81,-607.9"/>
</g>
<!-- signature_worker&#45;&gt;CoordAdapter -->
<g id="edge23" class="edge">
<title>signature_worker&#45;&gt;CoordAdapter</title>
<path fill="none" stroke="black" d="M388.93,-192C481.82,-192 661.31,-192 661.31,-192 661.31,-192 661.31,-607.77 661.31,-607.77"/>
<polygon fill="black" stroke="black" points="657.81,-607.77 661.31,-617.77 664.81,-607.77 657.81,-607.77"/>
</g>
<!-- table_worker&#45;&gt;CoordAdapter -->
<g id="edge24" class="edge">
<title>table_worker&#45;&gt;CoordAdapter</title>
<path fill="none" stroke="black" d="M378.4,-113C471.42,-113 680.31,-113 680.31,-113 680.31,-113 680.31,-608 680.31,-608"/>
<polygon fill="black" stroke="black" points="676.81,-608 680.31,-618 683.81,-608 676.81,-608"/>
</g>
<!-- translation_worker&#45;&gt;CoordAdapter -->
<g id="edge25" class="edge">
<title>translation_worker&#45;&gt;CoordAdapter</title>
<path fill="none" stroke="black" d="M388.97,-34C490.84,-34 700.31,-34 700.31,-34 700.31,-34 700.31,-607.98 700.31,-607.98"/>
<polygon fill="black" stroke="black" points="696.81,-607.98 700.31,-617.98 703.81,-607.98 696.81,-607.98"/>
</g>
<!-- vision_worker&#45;&gt;CoordAdapter -->
<g id="edge26" class="edge">
<title>vision_worker&#45;&gt;CoordAdapter</title>
<path fill="none" stroke="black" d="M377.69,-896C399.87,-896 422.31,-896 422.31,-896 422.31,-896 422.31,-638 422.31,-638 422.31,-638 574.28,-638 574.28,-638"/>
<polygon fill="black" stroke="black" points="574.28,-641.5 584.28,-638 574.28,-634.5 574.28,-641.5"/>
</g>
<!-- Generator -->
<g id="node22" class="node">
<title>Generator</title>
<path fill="#a0522d" stroke="#333333" d="M1314.31,-1193C1314.31,-1193 1220.31,-1193 1220.31,-1193 1214.31,-1193 1208.31,-1187 1208.31,-1181 1208.31,-1181 1208.31,-1169 1208.31,-1169 1208.31,-1163 1214.31,-1157 1220.31,-1157 1220.31,-1157 1314.31,-1157 1314.31,-1157 1320.31,-1157 1326.31,-1163 1326.31,-1169 1326.31,-1169 1326.31,-1181 1326.31,-1181 1326.31,-1187 1320.31,-1193 1314.31,-1193"/>
<text text-anchor="middle" x="1267.31" y="-1178.2" font-family="Arial" font-size="11.00" fill="white">PDF Generator</text>
<text text-anchor="middle" x="1267.31" y="-1166.2" font-family="Arial" font-size="11.00" fill="white">[WeasyPrint Overlay]</text>
</g>
<!-- Repair&#45;&gt;Generator -->
<g id="edge32" class="edge">
<title>Repair&#45;&gt;Generator</title>
<path fill="none" stroke="black" d="M1035.25,-1175C1035.25,-1175 1198.1,-1175 1198.1,-1175"/>
<polygon fill="black" stroke="black" points="1198.1,-1178.5 1208.1,-1175 1198.1,-1171.5 1198.1,-1178.5"/>
<text text-anchor="middle" x="1149.81" y="-1177.8" font-family="Times,serif" font-size="9.00"> Sanitized DOM</text>
</g>
<!-- Validator -->
<g id="node23" class="node">
<title>Validator</title>
<path fill="#6a0dad" stroke="#333333" d="M1511.31,-1193C1511.31,-1193 1436.31,-1193 1436.31,-1193 1430.31,-1193 1424.31,-1187 1424.31,-1181 1424.31,-1181 1424.31,-1169 1424.31,-1169 1424.31,-1163 1430.31,-1157 1436.31,-1157 1436.31,-1157 1511.31,-1157 1511.31,-1157 1517.31,-1157 1523.31,-1163 1523.31,-1169 1523.31,-1169 1523.31,-1181 1523.31,-1181 1523.31,-1187 1517.31,-1193 1511.31,-1193"/>
<text text-anchor="middle" x="1473.81" y="-1178.2" font-family="Arial" font-size="11.00" fill="white">Validation</text>
<text text-anchor="middle" x="1473.81" y="-1166.2" font-family="Arial" font-size="11.00" fill="white">[VeraPDF offline]</text>
</g>
<!-- Generator&#45;&gt;Validator -->
<g id="edge33" class="edge">
<title>Generator&#45;&gt;Validator</title>
<path fill="none" stroke="black" d="M1326.48,-1175C1326.48,-1175 1414.05,-1175 1414.05,-1175"/>
<polygon fill="black" stroke="black" points="1414.05,-1178.5 1424.05,-1175 1414.05,-1171.5 1414.05,-1178.5"/>
<text text-anchor="middle" x="1375.31" y="-1177.8" font-family="Times,serif" font-size="9.00"> Raw PDF</text>
</g>
<!-- OutputPDF -->
<g id="node25" class="node">
<title>OutputPDF</title>
<path fill="#2b5e8f" stroke="#333333" d="M1702.31,-1145C1702.31,-1145 1644.31,-1145 1644.31,-1145 1638.31,-1145 1632.31,-1139 1632.31,-1133 1632.31,-1133 1632.31,-1121 1632.31,-1121 1632.31,-1115 1638.31,-1109 1644.31,-1109 1644.31,-1109 1702.31,-1109 1702.31,-1109 1708.31,-1109 1714.31,-1115 1714.31,-1121 1714.31,-1121 1714.31,-1133 1714.31,-1133 1714.31,-1139 1708.31,-1145 1702.31,-1145"/>
<text text-anchor="middle" x="1673.31" y="-1130.2" font-family="Arial" font-size="11.00" fill="white">Barrierefreies</text>
<text text-anchor="middle" x="1673.31" y="-1118.2" font-family="Arial" font-size="11.00" fill="white">PDF/UA&#45;1</text>
</g>
<!-- Validator&#45;&gt;OutputPDF -->
<g id="edge34" class="edge">
<title>Validator&#45;&gt;OutputPDF</title>
<path fill="none" stroke="black" d="M1523.38,-1175C1582.46,-1175 1673.31,-1175 1673.31,-1175 1673.31,-1175 1673.31,-1155.15 1673.31,-1155.15"/>
<polygon fill="black" stroke="black" points="1676.81,-1155.15 1673.31,-1145.15 1669.81,-1155.15 1676.81,-1155.15"/>
<text text-anchor="middle" x="1577.81" y="-1170.8" font-family="Times,serif" font-size="9.00"> Verified PDF</text>
</g>
<!-- VSROut -->
<g id="node27" class="node">
<title>VSROut</title>
<path fill="#2b5e8f" stroke="#333333" d="M1312.81,-1027C1312.81,-1027 1221.81,-1027 1221.81,-1027 1215.81,-1027 1209.81,-1021 1209.81,-1015 1209.81,-1015 1209.81,-1003 1209.81,-1003 1209.81,-997 1215.81,-991 1221.81,-991 1221.81,-991 1312.81,-991 1312.81,-991 1318.81,-991 1324.81,-997 1324.81,-1003 1324.81,-1003 1324.81,-1015 1324.81,-1015 1324.81,-1021 1318.81,-1027 1312.81,-1027"/>
<text text-anchor="middle" x="1267.31" y="-1012.2" font-family="Arial" font-size="11.00" fill="white">Visual Screenreader</text>
<text text-anchor="middle" x="1267.31" y="-1000.2" font-family="Arial" font-size="11.00" fill="white">[HTML Vorschau]</text>
</g>
<!-- VSR&#45;&gt;VSROut -->
<g id="edge38" class="edge">
<title>VSR&#45;&gt;VSROut</title>
<path fill="none" stroke="black" d="M1085.98,-1085.44C1167.27,-1085.44 1267.31,-1085.44 1267.31,-1085.44 1267.31,-1085.44 1267.31,-1037.11 1267.31,-1037.11"/>
<polygon fill="black" stroke="black" points="1270.81,-1037.11 1267.31,-1027.11 1263.81,-1037.11 1270.81,-1037.11"/>
</g>
<!-- OutputPDF&#45;&gt;VSR -->
<g id="edge37" class="edge">
<title>OutputPDF&#45;&gt;VSR</title>
<path fill="none" stroke="black" d="M1631.86,-1136.33C1494.57,-1136.33 1063.31,-1136.33 1063.31,-1136.33 1063.31,-1136.33 1063.31,-1111.72 1063.31,-1111.72"/>
<polygon fill="black" stroke="black" points="1066.81,-1111.72 1063.31,-1101.72 1059.81,-1111.72 1066.81,-1111.72"/>
<text text-anchor="middle" x="1375.31" y="-1094.8" font-family="Times,serif" font-size="9.00"> Read Tags</text>
</g>
</g>
</svg>
