<?xml version="1.0" encoding="UTF-8" standalone="no"?>
<!DOCTYPE svg PUBLIC "-//W3C//DTD SVG 1.1//EN"
 "http://www.w3.org/Graphics/SVG/1.1/DTD/svg11.dtd">
<!-- Generated by graphviz version 2.43.0 (0)
 -->
<!-- Title: PDF_A11y_Architektur Pages: 1 -->
<svg width="1722pt" height="657pt"
 viewBox="0.00 0.00 1722.31 657.00" xmlns="http://www.w3.org/2000/svg" xmlns:xlink="http://www.w3.org/1999/xlink">
<g id="graph0" class="graph" transform="scale(1 1) rotate(0) translate(4 653)">
<title>PDF_A11y_Architektur</title>
<g id="clust1" class="cluster">
<title>cluster_domain</title>
<polygon fill="transparent" stroke="#2ca02c" stroke-dasharray="5,2" points="551.23,-151 551.23,-477 751.75,-477 751.75,-151 551.23,-151"/>
<text text-anchor="middle" x="651.49" y="-463.4" font-family="Arial bold" font-size="12.00" fill="#2ca02c">Domain Layer (Core Rules)</text>
</g>
<g id="clust2" class="cluster">
<title>cluster_app</title>
<polygon fill="transparent" stroke="#83b818" stroke-dasharray="5,2" points="227,-341 227,-509 442.23,-509 442.23,-341 227,-341"/>
<text text-anchor="middle" x="334.61" y="-495.4" font-family="Arial bold" font-size="12.00" fill="#83b818">Application Layer (Use Cases)</text>
</g>
<g id="clust3" class="cluster">
<title>cluster_plugins</title>
<polygon fill="transparent" stroke="#e2a929" stroke-dasharray="5,2" points="8,-8 8,-318 391.61,-318 391.61,-8 8,-8"/>
<text text-anchor="middle" x="199.81" y="-304.4" font-family="Arial bold" font-size="12.00" fill="#e2a929">Plugins Layer (Isolated Venvs)</text>
</g>
<g id="clust4" class="cluster">
<title>cluster_infra</title>
<polygon fill="transparent" stroke="#6a0dad" stroke-dasharray="5,2" points="867.75,-473 867.75,-641 1531.31,-641 1531.31,-473 867.75,-473"/>
<text text-anchor="middle" x="1199.53" y="-627.4" font-family="Arial bold" font-size="12.00" fill="#6a0dad">Infrastructure Layer</text>
</g>
<!-- User -->
<g id="node1" class="node">
<title>User</title>
<path fill="#2b5e8f" stroke="#333333" d="M95.5,-575C95.5,-575 49.5,-575 49.5,-575 43.5,-575 37.5,-569 37.5,-563 37.5,-563 37.5,-551 37.5,-551 37.5,-545 43.5,-539 49.5,-539 49.5,-539 95.5,-539 95.5,-539 101.5,-539 107.5,-545 107.5,-551 107.5,-551 107.5,-563 107.5,-563 107.5,-569 101.5,-575 95.5,-575"/>
<text text-anchor="middle" x="72.5" y="-560.2" font-family="Arial" font-size="11.00" fill="white">Benutzer</text>
<text text-anchor="middle" x="72.5" y="-548.2" font-family="Arial" font-size="11.00" fill="white">(GUI / CLI)</text>
</g>
<!-- Orchestrator -->
<g id="node6" class="node">
<title>Orchestrator</title>
<path fill="#83b818" stroke="#333333" d="M423.72,-459.59C423.72,-459.59 395.09,-474.67 395.09,-474.67 389.78,-477.46 378.48,-480.26 372.48,-480.26 372.48,-480.26 296.75,-480.26 296.75,-480.26 290.75,-480.26 279.44,-477.46 274.13,-474.67 274.13,-474.67 245.51,-459.59 245.51,-459.59 240.2,-456.8 240.2,-451.2 245.51,-448.41 245.51,-448.41 274.13,-433.33 274.13,-433.33 279.44,-430.54 290.75,-427.74 296.75,-427.74 296.75,-427.74 372.48,-427.74 372.48,-427.74 378.48,-427.74 389.78,-430.54 395.09,-433.33 395.09,-433.33 423.72,-448.41 423.72,-448.41 429.03,-451.2 429.03,-456.8 423.72,-459.59"/>
<text text-anchor="middle" x="334.61" y="-457.2" font-family="Arial" font-size="11.00" fill="white">SemanticOrchestrator</text>
<text text-anchor="middle" x="334.61" y="-445.2" font-family="Arial" font-size="11.00" fill="white">[Workflow &amp; Audit]</text>
</g>
<!-- User&#45;&gt;Orchestrator -->
<g id="edge5" class="edge">
<title>User&#45;&gt;Orchestrator</title>
<path fill="none" stroke="black" d="M73.31,-538.82C73.31,-511.42 73.31,-462.71 73.31,-462.71 73.31,-462.71 241.22,-462.71 241.22,-462.71"/>
<polygon fill="black" stroke="black" points="241.22,-466.21 251.22,-462.71 241.22,-459.21 241.22,-466.21"/>
</g>
<!-- VSR -->
<g id="node16" class="node">
<title>VSR</title>
<path fill="#4a6b74" stroke="#333333" d="M1080.3,-512.26C1080.3,-512.26 1048.09,-527.99 1048.09,-527.99 1042.7,-530.62 1031.31,-533.26 1025.31,-533.26 1025.31,-533.26 941.75,-533.26 941.75,-533.26 935.75,-533.26 924.36,-530.62 918.97,-527.99 918.97,-527.99 886.76,-512.26 886.76,-512.26 881.37,-509.63 881.37,-504.37 886.76,-501.74 886.76,-501.74 918.97,-486.01 918.97,-486.01 924.36,-483.38 935.75,-480.74 941.75,-480.74 941.75,-480.74 1025.31,-480.74 1025.31,-480.74 1031.31,-480.74 1042.7,-483.38 1048.09,-486.01 1048.09,-486.01 1080.3,-501.74 1080.3,-501.74 1085.69,-504.37 1085.69,-509.63 1080.3,-512.26"/>
<text text-anchor="middle" x="983.53" y="-510.2" font-family="Arial" font-size="11.00" fill="white">VSR Engine</text>
<text text-anchor="middle" x="983.53" y="-498.2" font-family="Arial" font-size="11.00" fill="white">[StructTreeRoot Parser]</text>
</g>
<!-- User&#45;&gt;VSR -->
<g id="edge20" class="edge">
<title>User&#45;&gt;VSR</title>
<path fill="none" stroke="black" stroke-dasharray="5,2" d="M107.71,-547.33C266.03,-547.33 904.31,-547.33 904.31,-547.33 904.31,-547.33 904.31,-531.11 904.31,-531.11"/>
<polygon fill="black" stroke="black" points="907.81,-531.11 904.31,-521.11 900.81,-531.11 907.81,-531.11"/>
<text text-anchor="middle" x="496.73" y="-594.8" font-family="Times,serif" font-size="9.00"> Trigger</text>
</g>
<!-- CoordAdapter -->
<g id="node2" class="node">
<title>CoordAdapter</title>
<path fill="#2ca02c" stroke="#333333" d="M706.49,-195C706.49,-195 596.49,-195 596.49,-195 590.49,-195 584.49,-189 584.49,-183 584.49,-183 584.49,-171 584.49,-171 584.49,-165 590.49,-159 596.49,-159 596.49,-159 706.49,-159 706.49,-159 712.49,-159 718.49,-165 718.49,-171 718.49,-171 718.49,-183 718.49,-183 718.49,-189 712.49,-195 706.49,-195"/>
<text text-anchor="middle" x="651.49" y="-180.2" font-family="Arial" font-size="11.00" fill="white">CoordinateAdapter</text>
<text text-anchor="middle" x="651.49" y="-168.2" font-family="Arial" font-size="11.00" fill="white">[Fail&#45;Fast Normalization]</text>
</g>
<!-- DOMTransformer -->
<g id="node7" class="node">
<title>DOMTransformer</title>
<path fill="#83b818" stroke="#333333" d="M373.11,-385C373.11,-385 296.11,-385 296.11,-385 290.11,-385 284.11,-379 284.11,-373 284.11,-373 284.11,-361 284.11,-361 284.11,-355 290.11,-349 296.11,-349 296.11,-349 373.11,-349 373.11,-349 379.11,-349 385.11,-355 385.11,-361 385.11,-361 385.11,-373 385.11,-373 385.11,-379 379.11,-385 373.11,-385"/>
<text text-anchor="middle" x="334.61" y="-370.2" font-family="Arial" font-size="11.00" fill="white">DOMTransformer</text>
<text text-anchor="middle" x="334.61" y="-358.2" font-family="Arial" font-size="11.00" fill="white">[Sensor Fusion]</text>
</g>
<!-- CoordAdapter&#45;&gt;DOMTransformer -->
<g id="edge11" class="edge">
<title>CoordAdapter&#45;&gt;DOMTransformer</title>
<path fill="none" stroke="black" d="M584.31,-188C503.43,-188 378.31,-188 378.31,-188 378.31,-188 378.31,-338.85 378.31,-338.85"/>
<polygon fill="black" stroke="black" points="374.81,-338.85 378.31,-348.85 381.81,-338.85 374.81,-338.85"/>
<text text-anchor="middle" x="496.73" y="-283.8" font-family="Times,serif" font-size="9.00"> Normalized BBox</text>
</g>
<!-- SpatialMatcher -->
<g id="node3" class="node">
<title>SpatialMatcher</title>
<path fill="#2ca02c" stroke="#333333" d="M698.99,-353C698.99,-353 603.99,-353 603.99,-353 597.99,-353 591.99,-347 591.99,-341 591.99,-341 591.99,-329 591.99,-329 591.99,-323 597.99,-317 603.99,-317 603.99,-317 698.99,-317 698.99,-317 704.99,-317 710.99,-323 710.99,-329 710.99,-329 710.99,-341 710.99,-341 710.99,-347 704.99,-353 698.99,-353"/>
<text text-anchor="middle" x="651.49" y="-338.2" font-family="Arial" font-size="11.00" fill="white">SpatialMatcher</text>
<text text-anchor="middle" x="651.49" y="-326.2" font-family="Arial" font-size="11.00" fill="white">[Bipartite Text&#45;Aware]</text>
</g>
<!-- ConstraintSolver -->
<g id="node4" class="node">
<title>ConstraintSolver</title>
<path fill="#2ca02c" stroke="#333333" d="M692.99,-274C692.99,-274 609.99,-274 609.99,-274 603.99,-274 597.99,-268 597.99,-262 597.99,-262 597.99,-250 597.99,-250 597.99,-244 603.99,-238 609.99,-238 609.99,-238 692.99,-238 692.99,-238 698.99,-238 704.99,-244 704.99,-250 704.99,-250 704.99,-262 704.99,-262 704.99,-268 698.99,-274 692.99,-274"/>
<text text-anchor="middle" x="651.49" y="-259.2" font-family="Arial" font-size="11.00" fill="white">ConstraintSolver</text>
<text text-anchor="middle" x="651.49" y="-247.2" font-family="Arial" font-size="11.00" fill="white">[BBox Subtraction]</text>
</g>
<!-- LayoutGraph -->
<g id="node5" class="node">
<title>LayoutGraph</title>
<path fill="#2ca02c" stroke="#333333" d="M733.1,-427.95C733.1,-427.95 707.93,-442.31 707.93,-442.31 702.71,-445.28 691.5,-448.26 685.5,-448.26 685.5,-448.26 617.47,-448.26 617.47,-448.26 611.47,-448.26 600.26,-445.28 595.05,-442.31 595.05,-442.31 569.88,-427.95 569.88,-427.95 564.67,-424.97 564.67,-419.03 569.88,-416.05 569.88,-416.05 595.05,-401.69 595.05,-401.69 600.26,-398.72 611.47,-395.74 617.47,-395.74 617.47,-395.74 685.5,-395.74 685.5,-395.74 691.5,-395.74 702.71,-398.72 707.93,-401.69 707.93,-401.69 733.1,-416.05 733.1,-416.05 738.31,-419.03 738.31,-424.97 733.1,-427.95"/>
<text text-anchor="middle" x="651.49" y="-425.2" font-family="Arial" font-size="11.00" fill="white">LayoutGraph Model</text>
<text text-anchor="middle" x="651.49" y="-413.2" font-family="Arial" font-size="11.00" fill="white">[Topological XY&#45;Cut]</text>
</g>
<!-- Repair -->
<g id="node13" class="node">
<title>Repair</title>
<path fill="#d4e1f9" stroke="#333333" d="M1023.03,-612C1023.03,-612 944.03,-612 944.03,-612 938.03,-612 932.03,-606 932.03,-600 932.03,-600 932.03,-588 932.03,-588 932.03,-582 938.03,-576 944.03,-576 944.03,-576 1023.03,-576 1023.03,-576 1029.03,-576 1035.03,-582 1035.03,-588 1035.03,-588 1035.03,-600 1035.03,-600 1035.03,-606 1029.03,-612 1023.03,-612"/>
<text text-anchor="middle" x="983.53" y="-597.2" font-family="Arial" font-size="11.00">Repair Facade</text>
<text text-anchor="middle" x="983.53" y="-585.2" font-family="Arial" font-size="11.00">[PyMuPDF Fonts]</text>
</g>
<!-- LayoutGraph&#45;&gt;Repair -->
<g id="edge15" class="edge">
<title>LayoutGraph&#45;&gt;Repair</title>
<path fill="none" stroke="black" d="M716.31,-437.57C716.31,-479.91 716.31,-594 716.31,-594 716.31,-594 922.01,-594 922.01,-594"/>
<polygon fill="black" stroke="black" points="922.01,-597.5 932.01,-594 922.01,-590.5 922.01,-597.5"/>
<text text-anchor="middle" x="809.75" y="-511.8" font-family="Times,serif" font-size="9.00"> Sorted SpatialDOM</text>
</g>
<!-- PluginManager -->
<g id="node8" class="node">
<title>PluginManager</title>
<path fill="#d4af37" stroke="#333333" d="M117,-210C117,-210 28,-210 28,-210 22,-210 16,-204 16,-198 16,-198 16,-186 16,-186 16,-180 22,-174 28,-174 28,-174 117,-174 117,-174 123,-174 129,-180 129,-186 129,-186 129,-198 129,-198 129,-204 123,-210 117,-210"/>
<text text-anchor="middle" x="72.5" y="-195.2" font-family="Arial" font-size="11.00" fill="white">Plugin Manager</text>
<text text-anchor="middle" x="72.5" y="-183.2" font-family="Arial" font-size="11.00" fill="white">[Manifest Discovery]</text>
</g>
<!-- Orchestrator&#45;&gt;PluginManager -->
<g id="edge6" class="edge">
<title>Orchestrator&#45;&gt;PluginManager</title>
<path fill="none" stroke="black" d="M251.39,-445.29C189.35,-445.29 115.31,-445.29 115.31,-445.29 115.31,-445.29 115.31,-220.22 115.31,-220.22"/>
<polygon fill="black" stroke="black" points="118.81,-220.22 115.31,-210.22 111.81,-220.22 118.81,-220.22"/>
<text text-anchor="middle" x="182" y="-352.8" font-family="Times,serif" font-size="9.00"> Map/Reduce</text>
</g>
<!-- AuditLog -->
<g id="node18" class="node">
<title>AuditLog</title>
<polygon fill="#555555" stroke="#333333" points="681.99,-527 614.99,-527 614.99,-491 687.99,-491 687.99,-521 681.99,-527"/>
<polyline fill="none" stroke="#333333" points="681.99,-527 681.99,-521 "/>
<polyline fill="none" stroke="#333333" points="687.99,-521 681.99,-521 "/>
<text text-anchor="middle" x="651.49" y="-512.2" font-family="Arial" font-size="11.00" fill="white">Audit Trail</text>
<text text-anchor="middle" x="651.49" y="-500.2" font-family="Arial" font-size="11.00" fill="white">[JSON Log]</text>
</g>
<!-- Orchestrator&#45;&gt;AuditLog -->
<g id="edge19" class="edge">
<title>Orchestrator&#45;&gt;AuditLog</title>
<path fill="none" stroke="black" stroke-dasharray="5,2" d="M415.19,-464.13C509.31,-464.13 652.31,-464.13 652.31,-464.13 652.31,-464.13 652.31,-480.75 652.31,-480.75"/>
<polygon fill="black" stroke="black" points="648.81,-480.75 652.31,-490.75 655.81,-480.75 648.81,-480.75"/>
<text text-anchor="middle" x="496.73" y="-511.8" font-family="Times,serif" font-size="9.00"> Status Log</text>
</g>
<!-- DOMTransformer&#45;&gt;SpatialMatcher -->
<g id="edge12" class="edge">
<title>DOMTransformer&#45;&gt;SpatialMatcher</title>
<path fill="none" stroke="black" stroke-dasharray="1,5" d="M382.31,-348.81C382.31,-340.72 382.31,-333 382.31,-333 382.31,-333 581.75,-333 581.75,-333"/>
<polygon fill="black" stroke="black" points="581.75,-336.5 591.75,-333 581.75,-329.5 581.75,-336.5"/>
</g>
<!-- DOMTransformer&#45;&gt;ConstraintSolver -->
<g id="edge13" class="edge">
<title>DOMTransformer&#45;&gt;ConstraintSolver</title>
<path fill="none" stroke="black" stroke-dasharray="1,5" d="M379.31,-348.66C379.31,-319.79 379.31,-267 379.31,-267 379.31,-267 587.72,-267 587.72,-267"/>
<polygon fill="black" stroke="black" points="587.72,-270.5 597.72,-267 587.72,-263.5 587.72,-270.5"/>
</g>
<!-- DOMTransformer&#45;&gt;LayoutGraph -->
<g id="edge14" class="edge">
<title>DOMTransformer&#45;&gt;LayoutGraph</title>
<path fill="none" stroke="black" d="M385.31,-369C455.12,-369 572.31,-369 572.31,-369 572.31,-369 572.31,-404.63 572.31,-404.63"/>
<polygon fill="black" stroke="black" points="568.81,-404.63 572.31,-414.63 575.81,-404.63 568.81,-404.63"/>
<text text-anchor="middle" x="496.73" y="-439.8" font-family="Times,serif" font-size="9.00"> Fusion</text>
</g>
<!-- W_Layout -->
<g id="node9" class="node">
<title>W_Layout</title>
<path fill="#e2a929" stroke="#333333" d="M350.61,-52C350.61,-52 318.61,-52 318.61,-52 312.61,-52 306.61,-46 306.61,-40 306.61,-40 306.61,-28 306.61,-28 306.61,-22 312.61,-16 318.61,-16 318.61,-16 350.61,-16 350.61,-16 356.61,-16 362.61,-22 362.61,-28 362.61,-28 362.61,-40 362.61,-40 362.61,-46 356.61,-52 350.61,-52"/>
<text text-anchor="middle" x="334.61" y="-37.2" font-family="Arial" font-size="11.00">Layout</text>
<text text-anchor="middle" x="334.61" y="-25.2" font-family="Arial" font-size="11.00">[docling]</text>
</g>
<!-- PluginManager&#45;&gt;W_Layout -->
<g id="edge1" class="edge">
<title>PluginManager&#45;&gt;W_Layout</title>
<path fill="none" stroke="black" stroke-dasharray="1,5" d="M73.31,-173.88C73.31,-132.37 73.31,-34 73.31,-34 73.31,-34 296.4,-34 296.4,-34"/>
<polygon fill="black" stroke="black" points="296.4,-37.5 306.4,-34 296.4,-30.5 296.4,-37.5"/>
</g>
<!-- W_Table -->
<g id="node10" class="node">
<title>W_Table</title>
<path fill="#e2a929" stroke="#333333" d="M361.11,-289C361.11,-289 308.11,-289 308.11,-289 302.11,-289 296.11,-283 296.11,-277 296.11,-277 296.11,-265 296.11,-265 296.11,-259 302.11,-253 308.11,-253 308.11,-253 361.11,-253 361.11,-253 367.11,-253 373.11,-259 373.11,-265 373.11,-265 373.11,-277 373.11,-277 373.11,-283 367.11,-289 361.11,-289"/>
<text text-anchor="middle" x="334.61" y="-274.2" font-family="Arial" font-size="11.00">Tables</text>
<text text-anchor="middle" x="334.61" y="-262.2" font-family="Arial" font-size="11.00">[pdfplumber]</text>
</g>
<!-- PluginManager&#45;&gt;W_Table -->
<g id="edge2" class="edge">
<title>PluginManager&#45;&gt;W_Table</title>
<path fill="none" stroke="black" stroke-dasharray="1,5" d="M122.31,-210.32C122.31,-233.66 122.31,-271 122.31,-271 122.31,-271 285.67,-271 285.67,-271"/>
<polygon fill="black" stroke="black" points="285.67,-274.5 295.67,-271 285.67,-267.5 285.67,-274.5"/>
</g>
<!-- W_Sig -->
<g id="node11" class="node">
<title>W_Sig</title>
<path fill="#e2a929" stroke="#333333" d="M364.11,-210C364.11,-210 305.11,-210 305.11,-210 299.11,-210 293.11,-204 293.11,-198 293.11,-198 293.11,-186 293.11,-186 293.11,-180 299.11,-174 305.11,-174 305.11,-174 364.11,-174 364.11,-174 370.11,-174 376.11,-180 376.11,-186 376.11,-186 376.11,-198 376.11,-198 376.11,-204 370.11,-210 364.11,-210"/>
<text text-anchor="middle" x="334.61" y="-195.2" font-family="Arial" font-size="11.00">Signatures</text>
<text text-anchor="middle" x="334.61" y="-183.2" font-family="Arial" font-size="11.00">[yolov8s local]</text>
</g>
<!-- PluginManager&#45;&gt;W_Sig -->
<g id="edge3" class="edge">
<title>PluginManager&#45;&gt;W_Sig</title>
<path fill="none" stroke="black" stroke-dasharray="1,5" d="M129.05,-198C129.05,-198 282.77,-198 282.77,-198"/>
<polygon fill="black" stroke="black" points="282.77,-201.5 292.77,-198 282.77,-194.5 282.77,-201.5"/>
</g>
<!-- W_Vision -->
<g id="node12" class="node">
<title>W_Vision</title>
<path fill="#e2a929" stroke="#333333" d="M371.61,-131C371.61,-131 297.61,-131 297.61,-131 291.61,-131 285.61,-125 285.61,-119 285.61,-119 285.61,-107 285.61,-107 285.61,-101 291.61,-95 297.61,-95 297.61,-95 371.61,-95 371.61,-95 377.61,-95 383.61,-101 383.61,-107 383.61,-107 383.61,-119 383.61,-119 383.61,-125 377.61,-131 371.61,-131"/>
<text text-anchor="middle" x="334.61" y="-116.2" font-family="Arial" font-size="11.00">Vision / Captions</text>
<text text-anchor="middle" x="334.61" y="-104.2" font-family="Arial" font-size="11.00">[blip/fitz]</text>
</g>
<!-- PluginManager&#45;&gt;W_Vision -->
<g id="edge4" class="edge">
<title>PluginManager&#45;&gt;W_Vision</title>
<path fill="none" stroke="black" stroke-dasharray="1,5" d="M129.16,-186C193.69,-186 290.31,-186 290.31,-186 290.31,-186 290.31,-141.04 290.31,-141.04"/>
<polygon fill="black" stroke="black" points="293.81,-141.04 290.31,-131.04 286.81,-141.04 293.81,-141.04"/>
</g>
<!-- W_Layout&#45;&gt;CoordAdapter -->
<g id="edge7" class="edge">
<title>W_Layout&#45;&gt;CoordAdapter</title>
<path fill="none" stroke="black" d="M362.81,-34C440.56,-34 652.31,-34 652.31,-34 652.31,-34 652.31,-148.89 652.31,-148.89"/>
<polygon fill="black" stroke="black" points="648.81,-148.89 652.31,-158.89 655.81,-148.89 648.81,-148.89"/>
</g>
<!-- W_Table&#45;&gt;CoordAdapter -->
<g id="edge8" class="edge">
<title>W_Table&#45;&gt;CoordAdapter</title>
<path fill="none" stroke="black" d="M373.14,-260C444.11,-260 588.31,-260 588.31,-260 588.31,-260 588.31,-205.01 588.31,-205.01"/>
<polygon fill="black" stroke="black" points="591.81,-205.01 588.31,-195.01 584.81,-205.01 591.81,-205.01"/>
</g>
<!-- W_Sig&#45;&gt;CoordAdapter -->
<g id="edge9" class="edge">
<title>W_Sig&#45;&gt;CoordAdapter</title>
<path fill="none" stroke="black" d="M376.36,-181C376.36,-181 574.45,-181 574.45,-181"/>
<polygon fill="black" stroke="black" points="574.45,-184.5 584.45,-181 574.45,-177.5 574.45,-184.5"/>
</g>
<!-- W_Vision&#45;&gt;CoordAdapter -->
<g id="edge10" class="edge">
<title>W_Vision&#45;&gt;CoordAdapter</title>
<path fill="none" stroke="black" d="M381.31,-131.11C381.31,-146.63 381.31,-166.5 381.31,-166.5 381.31,-166.5 574.36,-166.5 574.36,-166.5"/>
<polygon fill="black" stroke="black" points="574.36,-170 584.36,-166.5 574.36,-163 574.36,-170"/>
</g>
<!-- Generator -->
<g id="node14" class="node">
<title>Generator</title>
<path fill="#a0522d" stroke="#333333" d="M1314.31,-612C1314.31,-612 1220.31,-612 1220.31,-612 1214.31,-612 1208.31,-606 1208.31,-600 1208.31,-600 1208.31,-588 1208.31,-588 1208.31,-582 1214.31,-576 1220.31,-576 1220.31,-576 1314.31,-576 1314.31,-576 1320.31,-576 1326.31,-582 1326.31,-588 1326.31,-588 1326.31,-600 1326.31,-600 1326.31,-606 1320.31,-612 1314.31,-612"/>
<text text-anchor="middle" x="1267.31" y="-597.2" font-family="Arial" font-size="11.00" fill="white">PDF Generator</text>
<text text-anchor="middle" x="1267.31" y="-585.2" font-family="Arial" font-size="11.00" fill="white">[WeasyPrint Overlay]</text>
</g>
<!-- Repair&#45;&gt;Generator -->
<g id="edge16" class="edge">
<title>Repair&#45;&gt;Generator</title>
<path fill="none" stroke="black" d="M1035.25,-594C1035.25,-594 1198.1,-594 1198.1,-594"/>
<polygon fill="black" stroke="black" points="1198.1,-597.5 1208.1,-594 1198.1,-590.5 1198.1,-597.5"/>
<text text-anchor="middle" x="1149.81" y="-596.8" font-family="Times,serif" font-size="9.00"> Sanitized DOM</text>
</g>
<!-- Validator -->
<g id="node15" class="node">
<title>Validator</title>
<path fill="#6a0dad" stroke="#333333" d="M1511.31,-612C1511.31,-612 1436.31,-612 1436.31,-612 1430.31,-612 1424.31,-606 1424.31,-600 1424.31,-600 1424.31,-588 1424.31,-588 1424.31,-582 1430.31,-576 1436.31,-576 1436.31,-576 1511.31,-576 1511.31,-576 1517.31,-576 1523.31,-582 1523.31,-588 1523.31,-588 1523.31,-600 1523.31,-600 1523.31,-606 1517.31,-612 1511.31,-612"/>
<text text-anchor="middle" x="1473.81" y="-597.2" font-family="Arial" font-size="11.00" fill="white">Validation</text>
<text text-anchor="middle" x="1473.81" y="-585.2" font-family="Arial" font-size="11.00" fill="white">[VeraPDF offline]</text>
</g>
<!-- Generator&#45;&gt;Validator -->
<g id="edge17" class="edge">
<title>Generator&#45;&gt;Validator</title>
<path fill="none" stroke="black" d="M1326.48,-594C1326.48,-594 1414.05,-594 1414.05,-594"/>
<polygon fill="black" stroke="black" points="1414.05,-597.5 1424.05,-594 1414.05,-590.5 1414.05,-597.5"/>
<text text-anchor="middle" x="1375.31" y="-596.8" font-family="Times,serif" font-size="9.00"> Raw PDF</text>
</g>
<!-- OutputPDF -->
<g id="node17" class="node">
<title>OutputPDF</title>
<path fill="#2b5e8f" stroke="#333333" d="M1702.31,-564C1702.31,-564 1644.31,-564 1644.31,-564 1638.31,-564 1632.31,-558 1632.31,-552 1632.31,-552 1632.31,-540 1632.31,-540 1632.31,-534 1638.31,-528 1644.31,-528 1644.31,-528 1702.31,-528 1702.31,-528 1708.31,-528 1714.31,-534 1714.31,-540 1714.31,-540 1714.31,-552 1714.31,-552 1714.31,-558 1708.31,-564 1702.31,-564"/>
<text text-anchor="middle" x="1673.31" y="-549.2" font-family="Arial" font-size="11.00" fill="white">Barrierefreies</text>
<text text-anchor="middle" x="1673.31" y="-537.2" font-family="Arial" font-size="11.00" fill="white">PDF/UA&#45;1</text>
</g>
<!-- Validator&#45;&gt;OutputPDF -->
<g id="edge18" class="edge">
<title>Validator&#45;&gt;OutputPDF</title>
<path fill="none" stroke="black" d="M1523.38,-594C1582.46,-594 1673.31,-594 1673.31,-594 1673.31,-594 1673.31,-574.15 1673.31,-574.15"/>
<polygon fill="black" stroke="black" points="1676.81,-574.15 1673.31,-564.15 1669.81,-574.15 1676.81,-574.15"/>
<text text-anchor="middle" x="1577.81" y="-589.8" font-family="Times,serif" font-size="9.00"> Verified PDF</text>
</g>
<!-- VSROut -->
<g id="node19" class="node">
<title>VSROut</title>
<path fill="#2b5e8f" stroke="#333333" d="M1312.81,-446C1312.81,-446 1221.81,-446 1221.81,-446 1215.81,-446 1209.81,-440 1209.81,-434 1209.81,-434 1209.81,-422 1209.81,-422 1209.81,-416 1215.81,-410 1221.81,-410 1221.81,-410 1312.81,-410 1312.81,-410 1318.81,-410 1324.81,-416 1324.81,-422 1324.81,-422 1324.81,-434 1324.81,-434 1324.81,-440 1318.81,-446 1312.81,-446"/>
<text text-anchor="middle" x="1267.31" y="-431.2" font-family="Arial" font-size="11.00" fill="white">Visual Screenreader</text>
<text text-anchor="middle" x="1267.31" y="-419.2" font-family="Arial" font-size="11.00" fill="white">[HTML Vorschau]</text>
</g>
<!-- VSR&#45;&gt;VSROut -->
<g id="edge22" class="edge">
<title>VSR&#45;&gt;VSROut</title>
<path fill="none" stroke="black" d="M1085.98,-504.44C1167.27,-504.44 1267.31,-504.44 1267.31,-504.44 1267.31,-504.44 1267.31,-456.11 1267.31,-456.11"/>
<polygon fill="black" stroke="black" points="1270.81,-456.11 1267.31,-446.11 1263.81,-456.11 1270.81,-456.11"/>
</g>
<!-- OutputPDF&#45;&gt;VSR -->
<g id="edge21" class="edge">
<title>OutputPDF&#45;&gt;VSR</title>
<path fill="none" stroke="black" d="M1631.86,-555.67C1494.57,-555.67 1063.31,-555.67 1063.31,-555.67 1063.31,-555.67 1063.31,-530.82 1063.31,-530.82"/>
<polygon fill="black" stroke="black" points="1066.81,-530.82 1063.31,-520.82 1059.81,-530.82 1066.81,-530.82"/>
<text text-anchor="middle" x="1375.31" y="-513.8" font-family="Times,serif" font-size="9.00"> Read Tags</text>
</g>
</g>
</svg>
