<?xml version="1.0" encoding="UTF-8" standalone="no"?>
<!DOCTYPE svg PUBLIC "-//W3C//DTD SVG 1.1//EN"
 "http://www.w3.org/Graphics/SVG/1.1/DTD/svg11.dtd">
<!-- Generated by graphviz version 2.43.0 (0)
 -->
<!-- Title: PDF_A11y_Architektur Pages: 1 -->
<svg width="1427pt" height="352pt"
 viewBox="0.00 0.00 1426.67 352.13" xmlns="http://www.w3.org/2000/svg" xmlns:xlink="http://www.w3.org/1999/xlink">
<g id="graph0" class="graph" transform="scale(1 1) rotate(0) translate(4 348.13)">
<title>PDF_A11y_Architektur</title>
<!-- User -->
<g id="node1" class="node">
<title>User</title>
<path fill="#2b5e8f" stroke="#333333" d="M52,-40.13C52,-40.13 12,-40.13 12,-40.13 6,-40.13 0,-34.13 0,-28.13 0,-28.13 0,-16.13 0,-16.13 0,-10.13 6,-4.13 12,-4.13 12,-4.13 52,-4.13 52,-4.13 58,-4.13 64,-10.13 64,-16.13 64,-16.13 64,-28.13 64,-28.13 64,-34.13 58,-40.13 52,-40.13"/>
<text text-anchor="middle" x="32" y="-25.33" font-family="Arial" font-size="11.00" fill="white">Benutzer</text>
<text text-anchor="middle" x="32" y="-13.33" font-family="Arial" font-size="11.00" fill="white">(GUI/CLI)</text>
</g>
<!-- Engine -->
<g id="node2" class="node">
<title>Engine</title>
<path fill="#83b818" stroke="#333333" d="M360.93,-222.46C360.93,-222.46 315.52,-240.05 315.52,-240.05 309.92,-242.22 298.33,-244.38 292.33,-244.38 292.33,-244.38 180.75,-244.38 180.75,-244.38 174.75,-244.38 163.16,-242.22 157.56,-240.05 157.56,-240.05 112.15,-222.46 112.15,-222.46 106.56,-220.29 106.56,-215.96 112.15,-213.79 112.15,-213.79 157.56,-196.21 157.56,-196.21 163.16,-194.04 174.75,-191.87 180.75,-191.87 180.75,-191.87 292.33,-191.87 292.33,-191.87 298.33,-191.87 309.92,-194.04 315.52,-196.21 315.52,-196.21 360.93,-213.79 360.93,-213.79 366.52,-215.96 366.52,-220.29 360.93,-222.46"/>
<text text-anchor="middle" x="236.54" y="-221.33" font-family="Arial" font-size="11.00" fill="white">engine.py</text>
<text text-anchor="middle" x="236.54" y="-209.33" font-family="Arial" font-size="11.00" fill="white">[Orchestrator &amp; Sensor Fusion]</text>
</g>
<!-- User&#45;&gt;Engine -->
<g id="edge1" class="edge">
<title>User&#45;&gt;Engine</title>
<path fill="none" stroke="black" d="M32.67,-40.22C32.67,-88.74 32.67,-218.13 32.67,-218.13 32.67,-218.13 90.84,-218.13 90.84,-218.13"/>
<polygon fill="black" stroke="black" points="90.84,-221.63 100.84,-218.13 90.84,-214.63 90.84,-221.63"/>
</g>
<!-- VSR -->
<g id="node13" class="node">
<title>VSR</title>
<path fill="#4a6b74" stroke="#333333" d="M1275.87,-31.77C1275.87,-31.77 1247.76,-46.74 1247.76,-46.74 1242.46,-49.56 1231.17,-52.38 1225.17,-52.38 1225.17,-52.38 1150.58,-52.38 1150.58,-52.38 1144.58,-52.38 1133.28,-49.56 1127.99,-46.74 1127.99,-46.74 1099.87,-31.77 1099.87,-31.77 1094.58,-28.95 1094.58,-23.31 1099.87,-20.49 1099.87,-20.49 1127.99,-5.51 1127.99,-5.51 1133.28,-2.69 1144.58,0.13 1150.58,0.13 1150.58,0.13 1225.17,0.13 1225.17,0.13 1231.17,0.13 1242.46,-2.69 1247.76,-5.51 1247.76,-5.51 1275.87,-20.49 1275.87,-20.49 1281.17,-23.31 1281.17,-28.95 1275.87,-31.77"/>
<text text-anchor="middle" x="1187.87" y="-29.33" font-family="Arial" font-size="11.00" fill="white">vsr_generator.py</text>
<text text-anchor="middle" x="1187.87" y="-17.33" font-family="Arial" font-size="11.00" fill="white">[Visual Screenreader]</text>
</g>
<!-- User&#45;&gt;VSR -->
<g id="edge17" class="edge">
<title>User&#45;&gt;VSR</title>
<path fill="none" stroke="black" stroke-dasharray="5,2" d="M64.12,-21.13C64.12,-21.13 1088.45,-21.13 1088.45,-21.13"/>
<polygon fill="black" stroke="black" points="1088.45,-24.63 1098.45,-21.13 1088.45,-17.63 1088.45,-24.63"/>
<text text-anchor="middle" x="682.08" y="-12.93" font-family="Times,serif" font-size="9.00"> Trigger</text>
</g>
<!-- W_Layout -->
<g id="node3" class="node">
<title>W_Layout</title>
<path fill="#e2a929" stroke="#333333" d="M514.58,-344.13C514.58,-344.13 445.58,-344.13 445.58,-344.13 439.58,-344.13 433.58,-338.13 433.58,-332.13 433.58,-332.13 433.58,-320.13 433.58,-320.13 433.58,-314.13 439.58,-308.13 445.58,-308.13 445.58,-308.13 514.58,-308.13 514.58,-308.13 520.58,-308.13 526.58,-314.13 526.58,-320.13 526.58,-320.13 526.58,-332.13 526.58,-332.13 526.58,-338.13 520.58,-344.13 514.58,-344.13"/>
<text text-anchor="middle" x="480.08" y="-329.33" font-family="Arial" font-size="11.00">Layout&#45;Experte</text>
<text text-anchor="middle" x="480.08" y="-317.33" font-family="Arial" font-size="11.00">[docling/marker]</text>
</g>
<!-- Engine&#45;&gt;W_Layout -->
<g id="edge2" class="edge">
<title>Engine&#45;&gt;W_Layout</title>
<path fill="none" stroke="black" d="M191.67,-244.28C191.67,-277.94 191.67,-332.13 191.67,-332.13 191.67,-332.13 423.42,-332.13 423.42,-332.13"/>
<polygon fill="black" stroke="black" points="423.42,-335.63 433.42,-332.13 423.42,-328.63 423.42,-335.63"/>
</g>
<!-- W_Table -->
<g id="node4" class="node">
<title>W_Table</title>
<path fill="#e2a929" stroke="#333333" d="M517.08,-290.13C517.08,-290.13 443.08,-290.13 443.08,-290.13 437.08,-290.13 431.08,-284.13 431.08,-278.13 431.08,-278.13 431.08,-266.13 431.08,-266.13 431.08,-260.13 437.08,-254.13 443.08,-254.13 443.08,-254.13 517.08,-254.13 517.08,-254.13 523.08,-254.13 529.08,-260.13 529.08,-266.13 529.08,-266.13 529.08,-278.13 529.08,-278.13 529.08,-284.13 523.08,-290.13 517.08,-290.13"/>
<text text-anchor="middle" x="480.08" y="-275.33" font-family="Arial" font-size="11.00">Tabellen&#45;Experte</text>
<text text-anchor="middle" x="480.08" y="-263.33" font-family="Arial" font-size="11.00">[pdfplumber]</text>
</g>
<!-- Engine&#45;&gt;W_Table -->
<g id="edge3" class="edge">
<title>Engine&#45;&gt;W_Table</title>
<path fill="none" stroke="black" d="M311.8,-241.55C369.27,-241.55 438.67,-241.55 438.67,-241.55 438.67,-241.55 438.67,-243.99 438.67,-243.99"/>
<polygon fill="black" stroke="black" points="435.17,-243.99 438.67,-253.99 442.17,-243.99 435.17,-243.99"/>
</g>
<!-- W_Vision -->
<g id="node5" class="node">
<title>W_Vision</title>
<path fill="#e2a929" stroke="#333333" d="M506.08,-236.13C506.08,-236.13 454.08,-236.13 454.08,-236.13 448.08,-236.13 442.08,-230.13 442.08,-224.13 442.08,-224.13 442.08,-212.13 442.08,-212.13 442.08,-206.13 448.08,-200.13 454.08,-200.13 454.08,-200.13 506.08,-200.13 506.08,-200.13 512.08,-200.13 518.08,-206.13 518.08,-212.13 518.08,-212.13 518.08,-224.13 518.08,-224.13 518.08,-230.13 512.08,-236.13 506.08,-236.13"/>
<text text-anchor="middle" x="480.08" y="-221.33" font-family="Arial" font-size="11.00">Bild&#45;Experte</text>
<text text-anchor="middle" x="480.08" y="-209.33" font-family="Arial" font-size="11.00">[blip]</text>
</g>
<!-- Engine&#45;&gt;W_Vision -->
<g id="edge4" class="edge">
<title>Engine&#45;&gt;W_Vision</title>
<path fill="none" stroke="black" d="M372.19,-218.13C372.19,-218.13 431.8,-218.13 431.8,-218.13"/>
<polygon fill="black" stroke="black" points="431.8,-221.63 441.8,-218.13 431.8,-214.63 431.8,-221.63"/>
</g>
<!-- W_Form -->
<g id="node6" class="node">
<title>W_Form</title>
<path fill="#e2a929" stroke="#333333" d="M518.58,-182.13C518.58,-182.13 441.58,-182.13 441.58,-182.13 435.58,-182.13 429.58,-176.13 429.58,-170.13 429.58,-170.13 429.58,-158.13 429.58,-158.13 429.58,-152.13 435.58,-146.13 441.58,-146.13 441.58,-146.13 518.58,-146.13 518.58,-146.13 524.58,-146.13 530.58,-152.13 530.58,-158.13 530.58,-158.13 530.58,-170.13 530.58,-170.13 530.58,-176.13 524.58,-182.13 518.58,-182.13"/>
<text text-anchor="middle" x="480.08" y="-167.33" font-family="Arial" font-size="11.00">Formular&#45;Experte</text>
<text text-anchor="middle" x="480.08" y="-155.33" font-family="Arial" font-size="11.00">[pikepdf]</text>
</g>
<!-- Engine&#45;&gt;W_Form -->
<g id="edge5" class="edge">
<title>Engine&#45;&gt;W_Form</title>
<path fill="none" stroke="black" d="M313.32,-195.25C368.67,-195.25 433.67,-195.25 433.67,-195.25 433.67,-195.25 433.67,-192.23 433.67,-192.23"/>
<polygon fill="black" stroke="black" points="437.17,-192.23 433.67,-182.23 430.17,-192.23 437.17,-192.23"/>
</g>
<!-- W_Sig -->
<g id="node7" class="node">
<title>W_Sig</title>
<path fill="#e2a929" stroke="#333333" d="M517.08,-128.13C517.08,-128.13 443.08,-128.13 443.08,-128.13 437.08,-128.13 431.08,-122.13 431.08,-116.13 431.08,-116.13 431.08,-104.13 431.08,-104.13 431.08,-98.13 437.08,-92.13 443.08,-92.13 443.08,-92.13 517.08,-92.13 517.08,-92.13 523.08,-92.13 529.08,-98.13 529.08,-104.13 529.08,-104.13 529.08,-116.13 529.08,-116.13 529.08,-122.13 523.08,-128.13 517.08,-128.13"/>
<text text-anchor="middle" x="480.08" y="-113.33" font-family="Arial" font-size="11.00">Signatur&#45;Experte</text>
<text text-anchor="middle" x="480.08" y="-101.33" font-family="Arial" font-size="11.00">[yolov8s local]</text>
</g>
<!-- Engine&#45;&gt;W_Sig -->
<g id="edge6" class="edge">
<title>Engine&#45;&gt;W_Sig</title>
<path fill="none" stroke="black" d="M236.67,-191.98C236.67,-160.02 236.67,-110.13 236.67,-110.13 236.67,-110.13 420.82,-110.13 420.82,-110.13"/>
<polygon fill="black" stroke="black" points="420.82,-113.63 430.82,-110.13 420.82,-106.63 420.82,-113.63"/>
</g>
<!-- Repair -->
<g id="node9" class="node">
<title>Repair</title>
<path fill="#d4e1f9" stroke="#333333" d="M539.08,-74.13C539.08,-74.13 421.08,-74.13 421.08,-74.13 415.08,-74.13 409.08,-68.13 409.08,-62.13 409.08,-62.13 409.08,-50.13 409.08,-50.13 409.08,-44.13 415.08,-38.13 421.08,-38.13 421.08,-38.13 539.08,-38.13 539.08,-38.13 545.08,-38.13 551.08,-44.13 551.08,-50.13 551.08,-50.13 551.08,-62.13 551.08,-62.13 551.08,-68.13 545.08,-74.13 539.08,-74.13"/>
<text text-anchor="middle" x="480.08" y="-59.33" font-family="Arial" font-size="11.00">repair.py</text>
<text text-anchor="middle" x="480.08" y="-47.33" font-family="Arial" font-size="11.00">[Sanitization &amp; PyMuPDF]</text>
</g>
<!-- Engine&#45;&gt;Repair -->
<g id="edge13" class="edge">
<title>Engine&#45;&gt;Repair</title>
<path fill="none" stroke="black" d="M308.92,-193.63C360.1,-193.63 419.67,-193.63 419.67,-193.63 419.67,-193.63 419.67,-84.39 419.67,-84.39"/>
<polygon fill="black" stroke="black" points="423.17,-84.39 419.67,-74.39 416.17,-84.39 423.17,-84.39"/>
</g>
<!-- W_Layout&#45;&gt;Engine -->
<g id="edge10" class="edge">
<title>W_Layout&#45;&gt;Engine</title>
<path fill="none" stroke="black" d="M433.29,-320.13C374.92,-320.13 282.67,-320.13 282.67,-320.13 282.67,-320.13 282.67,-254.4 282.67,-254.4"/>
<polygon fill="black" stroke="black" points="286.17,-254.4 282.67,-244.4 279.17,-254.4 286.17,-254.4"/>
</g>
<!-- W_Table&#45;&gt;Engine -->
<g id="edge11" class="edge">
<title>W_Table&#45;&gt;Engine</title>
<path fill="none" stroke="black" d="M440.67,-253.92C440.67,-246.15 440.67,-238.84 440.67,-238.84 440.67,-238.84 328.68,-238.84 328.68,-238.84"/>
<polygon fill="black" stroke="black" points="328.68,-235.34 318.68,-238.84 328.68,-242.34 328.68,-235.34"/>
</g>
<!-- W_Trans -->
<g id="node8" class="node">
<title>W_Trans</title>
<path fill="#e2a929" stroke="#333333" d="M705.08,-236.13C705.08,-236.13 659.08,-236.13 659.08,-236.13 653.08,-236.13 647.08,-230.13 647.08,-224.13 647.08,-224.13 647.08,-212.13 647.08,-212.13 647.08,-206.13 653.08,-200.13 659.08,-200.13 659.08,-200.13 705.08,-200.13 705.08,-200.13 711.08,-200.13 717.08,-206.13 717.08,-212.13 717.08,-212.13 717.08,-224.13 717.08,-224.13 717.08,-230.13 711.08,-236.13 705.08,-236.13"/>
<text text-anchor="middle" x="682.08" y="-221.33" font-family="Arial" font-size="11.00">Übersetzer</text>
<text text-anchor="middle" x="682.08" y="-209.33" font-family="Arial" font-size="11.00">[nllb&#45;200]</text>
</g>
<!-- W_Vision&#45;&gt;W_Trans -->
<g id="edge7" class="edge">
<title>W_Vision&#45;&gt;W_Trans</title>
<path fill="none" stroke="black" d="M518.55,-218.13C518.55,-218.13 636.79,-218.13 636.79,-218.13"/>
<polygon fill="black" stroke="black" points="636.79,-221.63 646.79,-218.13 636.79,-214.63 636.79,-221.63"/>
<text text-anchor="middle" x="587.08" y="-220.93" font-family="Times,serif" font-size="9.00"> Alt&#45;Texte</text>
</g>
<!-- W_Form&#45;&gt;Engine -->
<g id="edge12" class="edge">
<title>W_Form&#45;&gt;Engine</title>
<path fill="none" stroke="black" d="M435.67,-182.42C435.67,-189.92 435.67,-196.88 435.67,-196.88 435.67,-196.88 327.53,-196.88 327.53,-196.88"/>
<polygon fill="black" stroke="black" points="327.53,-193.38 317.53,-196.88 327.53,-200.38 327.53,-193.38"/>
</g>
<!-- W_Sig&#45;&gt;W_Trans -->
<g id="edge8" class="edge">
<title>W_Sig&#45;&gt;W_Trans</title>
<path fill="none" stroke="black" d="M529.31,-110.13C592.66,-110.13 694.67,-110.13 694.67,-110.13 694.67,-110.13 694.67,-189.81 694.67,-189.81"/>
<polygon fill="black" stroke="black" points="691.17,-189.81 694.67,-199.81 698.17,-189.81 691.17,-189.81"/>
<text text-anchor="middle" x="587.08" y="-150.93" font-family="Times,serif" font-size="9.00"> Labels</text>
</g>
<!-- W_Trans&#45;&gt;Engine -->
<g id="edge9" class="edge">
<title>W_Trans&#45;&gt;Engine</title>
<path fill="none" stroke="black" d="M670.67,-200.04C670.67,-199.08 670.67,-198.5 670.67,-198.5 670.67,-198.5 331.53,-198.5 331.53,-198.5"/>
<polygon fill="black" stroke="black" points="331.53,-195 321.53,-198.5 331.53,-202 331.53,-195"/>
</g>
<!-- Generator -->
<g id="node10" class="node">
<title>Generator</title>
<path fill="#a0522d" stroke="#333333" d="M729.08,-74.13C729.08,-74.13 635.08,-74.13 635.08,-74.13 629.08,-74.13 623.08,-68.13 623.08,-62.13 623.08,-62.13 623.08,-50.13 623.08,-50.13 623.08,-44.13 629.08,-38.13 635.08,-38.13 635.08,-38.13 729.08,-38.13 729.08,-38.13 735.08,-38.13 741.08,-44.13 741.08,-50.13 741.08,-50.13 741.08,-62.13 741.08,-62.13 741.08,-68.13 735.08,-74.13 729.08,-74.13"/>
<text text-anchor="middle" x="682.08" y="-59.33" font-family="Arial" font-size="11.00" fill="white">generator.py</text>
<text text-anchor="middle" x="682.08" y="-47.33" font-family="Arial" font-size="11.00" fill="white">[WeasyPrint Overlay]</text>
</g>
<!-- Repair&#45;&gt;Generator -->
<g id="edge14" class="edge">
<title>Repair&#45;&gt;Generator</title>
<path fill="none" stroke="black" d="M551.29,-56.13C551.29,-56.13 612.85,-56.13 612.85,-56.13"/>
<polygon fill="black" stroke="black" points="612.85,-59.63 622.85,-56.13 612.85,-52.63 612.85,-59.63"/>
</g>
<!-- Validator -->
<g id="node11" class="node">
<title>Validator</title>
<path fill="#6a0dad" stroke="#333333" d="M865.08,-74.13C865.08,-74.13 790.08,-74.13 790.08,-74.13 784.08,-74.13 778.08,-68.13 778.08,-62.13 778.08,-62.13 778.08,-50.13 778.08,-50.13 778.08,-44.13 784.08,-38.13 790.08,-38.13 790.08,-38.13 865.08,-38.13 865.08,-38.13 871.08,-38.13 877.08,-44.13 877.08,-50.13 877.08,-50.13 877.08,-62.13 877.08,-62.13 877.08,-68.13 871.08,-74.13 865.08,-74.13"/>
<text text-anchor="middle" x="827.58" y="-59.33" font-family="Arial" font-size="11.00" fill="white">validation.py</text>
<text text-anchor="middle" x="827.58" y="-47.33" font-family="Arial" font-size="11.00" fill="white">[VeraPDF offline]</text>
</g>
<!-- Generator&#45;&gt;Validator -->
<g id="edge15" class="edge">
<title>Generator&#45;&gt;Validator</title>
<path fill="none" stroke="black" d="M741.26,-56.13C741.26,-56.13 767.76,-56.13 767.76,-56.13"/>
<polygon fill="black" stroke="black" points="767.76,-59.63 777.76,-56.13 767.76,-52.63 767.76,-59.63"/>
</g>
<!-- Output -->
<g id="node12" class="node">
<title>Output</title>
<path fill="#2b5e8f" stroke="#333333" d="M984.08,-74.13C984.08,-74.13 926.08,-74.13 926.08,-74.13 920.08,-74.13 914.08,-68.13 914.08,-62.13 914.08,-62.13 914.08,-50.13 914.08,-50.13 914.08,-44.13 920.08,-38.13 926.08,-38.13 926.08,-38.13 984.08,-38.13 984.08,-38.13 990.08,-38.13 996.08,-44.13 996.08,-50.13 996.08,-50.13 996.08,-62.13 996.08,-62.13 996.08,-68.13 990.08,-74.13 984.08,-74.13"/>
<text text-anchor="middle" x="955.08" y="-59.33" font-family="Arial" font-size="11.00" fill="white">Barrierefreies</text>
<text text-anchor="middle" x="955.08" y="-47.33" font-family="Arial" font-size="11.00" fill="white">PDF/UA&#45;1</text>
</g>
<!-- Validator&#45;&gt;Output -->
<g id="edge16" class="edge">
<title>Validator&#45;&gt;Output</title>
<path fill="none" stroke="black" d="M877.24,-56.13C877.24,-56.13 904,-56.13 904,-56.13"/>
<polygon fill="black" stroke="black" points="904,-59.63 914,-56.13 904,-52.63 904,-59.63"/>
</g>
<!-- Output&#45;&gt;VSR -->
<g id="edge18" class="edge">
<title>Output&#45;&gt;VSR</title>
<path fill="none" stroke="black" d="M996.16,-45.19C996.16,-45.19 1114.85,-45.19 1114.85,-45.19"/>
<polygon fill="black" stroke="black" points="1114.85,-48.69 1124.85,-45.19 1114.84,-41.69 1114.85,-48.69"/>
<text text-anchor="middle" x="1042.58" y="-51.93" font-family="Times,serif" font-size="9.00"> StructTreeRoot</text>
</g>
<!-- VSR_Out -->
<g id="node14" class="node">
<title>VSR_Out</title>
<path fill="#2b5e8f" stroke="#333333" d="M1406.67,-44.13C1406.67,-44.13 1335.67,-44.13 1335.67,-44.13 1329.67,-44.13 1323.67,-38.13 1323.67,-32.13 1323.67,-32.13 1323.67,-20.13 1323.67,-20.13 1323.67,-14.13 1329.67,-8.13 1335.67,-8.13 1335.67,-8.13 1406.67,-8.13 1406.67,-8.13 1412.67,-8.13 1418.67,-14.13 1418.67,-20.13 1418.67,-20.13 1418.67,-32.13 1418.67,-32.13 1418.67,-38.13 1412.67,-44.13 1406.67,-44.13"/>
<text text-anchor="middle" x="1371.17" y="-29.33" font-family="Arial" font-size="11.00" fill="white">HTML&#45;Vorschau</text>
<text text-anchor="middle" x="1371.17" y="-17.33" font-family="Arial" font-size="11.00" fill="white">(PAC26 Style)</text>
</g>
<!-- VSR&#45;&gt;VSR_Out -->
<g id="edge19" class="edge">
<title>VSR&#45;&gt;VSR_Out</title>
<path fill="none" stroke="black" d="M1286.5,-26.13C1286.5,-26.13 1313.56,-26.13 1313.56,-26.13"/>
<polygon fill="black" stroke="black" points="1313.56,-29.63 1323.56,-26.13 1313.56,-22.63 1313.56,-29.63"/>
</g>
</g>
</svg>
