<?xml version="1.0" encoding="UTF-8" standalone="no"?>
<!DOCTYPE svg PUBLIC "-//W3C//DTD SVG 1.1//EN"
 "http://www.w3.org/Graphics/SVG/1.1/DTD/svg11.dtd">
<!-- Generated by graphviz version 2.43.0 (0)
 -->
<!-- Title: PDF_A11y_Architektur Pages: 1 -->
<svg width="1513pt" height="541pt"
 viewBox="0.00 0.00 1512.84 541.00" xmlns="http://www.w3.org/2000/svg" xmlns:xlink="http://www.w3.org/1999/xlink">
<g id="graph0" class="graph" transform="scale(1 1) rotate(0) translate(4 537)">
<title>PDF_A11y_Architektur</title>
<g id="clust1" class="cluster">
<title>cluster_app</title>
<polygon fill="transparent" stroke="#83b818" stroke-dasharray="5,2" points="337,-229 337,-318 565.29,-318 565.29,-229 337,-229"/>
<text text-anchor="middle" x="451.14" y="-304.4" font-family="Arial bold" font-size="12.00" fill="#83b818">Application Layer</text>
</g>
<g id="clust2" class="cluster">
<title>cluster_plugins</title>
<polygon fill="transparent" stroke="#e2a929" stroke-dasharray="5,2" points="8,-45 8,-434 294,-434 294,-45 8,-45"/>
<text text-anchor="middle" x="151" y="-420.4" font-family="Arial bold" font-size="12.00" fill="#e2a929">Plugins Layer (Isolated Venvs)</text>
</g>
<g id="clust3" class="cluster">
<title>cluster_infra</title>
<polygon fill="transparent" stroke="#6a0dad" stroke-dasharray="5,2" points="658.29,-357 658.29,-525 1321.84,-525 1321.84,-357 658.29,-357"/>
<text text-anchor="middle" x="990.07" y="-511.4" font-family="Arial bold" font-size="12.00" fill="#6a0dad">Infrastructure Layer</text>
</g>
<!-- User -->
<g id="node1" class="node">
<title>User</title>
<path fill="#2b5e8f" stroke="#333333" d="M260,-484C260,-484 214,-484 214,-484 208,-484 202,-478 202,-472 202,-472 202,-460 202,-460 202,-454 208,-448 214,-448 214,-448 260,-448 260,-448 266,-448 272,-454 272,-460 272,-460 272,-472 272,-472 272,-478 266,-484 260,-484"/>
<text text-anchor="middle" x="237" y="-469.2" font-family="Arial" font-size="11.00" fill="white">Benutzer</text>
<text text-anchor="middle" x="237" y="-457.2" font-family="Arial" font-size="11.00" fill="white">(GUI / CLI)</text>
</g>
<!-- Orchestrator -->
<g id="node2" class="node">
<title>Orchestrator</title>
<path fill="#83b818" stroke="#333333" d="M546.68,-268.32C546.68,-268.32 515.05,-283.94 515.05,-283.94 509.67,-286.6 498.29,-289.26 492.29,-289.26 492.29,-289.26 410,-289.26 410,-289.26 404,-289.26 392.62,-286.6 387.24,-283.94 387.24,-283.94 355.61,-268.32 355.61,-268.32 350.23,-265.66 350.23,-260.34 355.61,-257.68 355.61,-257.68 387.24,-242.06 387.24,-242.06 392.62,-239.4 404,-236.74 410,-236.74 410,-236.74 492.29,-236.74 492.29,-236.74 498.29,-236.74 509.67,-239.4 515.05,-242.06 515.05,-242.06 546.68,-257.68 546.68,-257.68 552.05,-260.34 552.05,-265.66 546.68,-268.32"/>
<text text-anchor="middle" x="451.14" y="-266.2" font-family="Arial" font-size="11.00" fill="white">SemanticOrchestrator</text>
<text text-anchor="middle" x="451.14" y="-254.2" font-family="Arial" font-size="11.00" fill="white">[Sensor Fusion &amp; Audit]</text>
</g>
<!-- User&#45;&gt;Orchestrator -->
<g id="edge6" class="edge">
<title>User&#45;&gt;Orchestrator</title>
<path fill="none" stroke="black" d="M272.48,-451C333.5,-451 451.84,-451 451.84,-451 451.84,-451 451.84,-299.14 451.84,-299.14"/>
<polygon fill="black" stroke="black" points="455.34,-299.14 451.84,-289.14 448.34,-299.14 455.34,-299.14"/>
</g>
<!-- VSR -->
<g id="node12" class="node">
<title>VSR</title>
<path fill="#4a6b74" stroke="#333333" d="M870.84,-396.26C870.84,-396.26 838.63,-411.99 838.63,-411.99 833.24,-414.62 821.84,-417.26 815.84,-417.26 815.84,-417.26 732.29,-417.26 732.29,-417.26 726.29,-417.26 714.9,-414.62 709.51,-411.99 709.51,-411.99 677.29,-396.26 677.29,-396.26 671.9,-393.63 671.9,-388.37 677.29,-385.74 677.29,-385.74 709.51,-370.01 709.51,-370.01 714.9,-367.38 726.29,-364.74 732.29,-364.74 732.29,-364.74 815.84,-364.74 815.84,-364.74 821.84,-364.74 833.24,-367.38 838.63,-370.01 838.63,-370.01 870.84,-385.74 870.84,-385.74 876.23,-388.37 876.23,-393.63 870.84,-396.26"/>
<text text-anchor="middle" x="774.07" y="-394.2" font-family="Arial" font-size="11.00" fill="white">VSR Engine</text>
<text text-anchor="middle" x="774.07" y="-382.2" font-family="Arial" font-size="11.00" fill="white">[StructTreeRoot Parser]</text>
</g>
<!-- User&#45;&gt;VSR -->
<g id="edge18" class="edge">
<title>User&#45;&gt;VSR</title>
<path fill="none" stroke="black" stroke-dasharray="5,2" d="M272.17,-454C379.38,-454 694.84,-454 694.84,-454 694.84,-454 694.84,-414.98 694.84,-414.98"/>
<polygon fill="black" stroke="black" points="698.34,-414.98 694.84,-404.98 691.34,-414.98 698.34,-414.98"/>
<text text-anchor="middle" x="451.14" y="-466.8" font-family="Times,serif" font-size="9.00"> Trigger</text>
</g>
<!-- PluginManager -->
<g id="node3" class="node">
<title>PluginManager</title>
<path fill="#d4af37" stroke="#333333" d="M117,-208C117,-208 28,-208 28,-208 22,-208 16,-202 16,-196 16,-196 16,-184 16,-184 16,-178 22,-172 28,-172 28,-172 117,-172 117,-172 123,-172 129,-178 129,-184 129,-184 129,-196 129,-196 129,-202 123,-208 117,-208"/>
<text text-anchor="middle" x="72.5" y="-193.2" font-family="Arial" font-size="11.00" fill="white">Plugin Manager</text>
<text text-anchor="middle" x="72.5" y="-181.2" font-family="Arial" font-size="11.00" fill="white">[Manifest Discovery]</text>
</g>
<!-- Orchestrator&#45;&gt;PluginManager -->
<g id="edge7" class="edge">
<title>Orchestrator&#45;&gt;PluginManager</title>
<path fill="none" stroke="black" d="M348.41,-261.04C245.05,-261.04 100.84,-261.04 100.84,-261.04 100.84,-261.04 100.84,-218.3 100.84,-218.3"/>
<polygon fill="black" stroke="black" points="104.34,-218.3 100.84,-208.3 97.34,-218.3 104.34,-218.3"/>
<text text-anchor="middle" x="237" y="-2.8" font-family="Times,serif" font-size="9.00"> Load Manifests</text>
</g>
<!-- Repair -->
<g id="node9" class="node">
<title>Repair</title>
<path fill="#d4e1f9" stroke="#333333" d="M813.57,-496C813.57,-496 734.57,-496 734.57,-496 728.57,-496 722.57,-490 722.57,-484 722.57,-484 722.57,-472 722.57,-472 722.57,-466 728.57,-460 734.57,-460 734.57,-460 813.57,-460 813.57,-460 819.57,-460 825.57,-466 825.57,-472 825.57,-472 825.57,-484 825.57,-484 825.57,-490 819.57,-496 813.57,-496"/>
<text text-anchor="middle" x="774.07" y="-481.2" font-family="Arial" font-size="11.00">Repair Facade</text>
<text text-anchor="middle" x="774.07" y="-469.2" font-family="Arial" font-size="11.00">[PyMuPDF Fonts]</text>
</g>
<!-- Orchestrator&#45;&gt;Repair -->
<g id="edge13" class="edge">
<title>Orchestrator&#45;&gt;Repair</title>
<path fill="none" stroke="black" d="M504.84,-289.05C504.84,-345.07 504.84,-472 504.84,-472 504.84,-472 712.48,-472 712.48,-472"/>
<polygon fill="black" stroke="black" points="712.48,-475.5 722.48,-472 712.48,-468.5 712.48,-475.5"/>
<text text-anchor="middle" x="611.79" y="-360.8" font-family="Times,serif" font-size="9.00"> Spatial DOM</text>
</g>
<!-- AuditLog -->
<g id="node14" class="node">
<title>AuditLog</title>
<polygon fill="#555555" stroke="#333333" points="804.57,-281 737.57,-281 737.57,-245 810.57,-245 810.57,-275 804.57,-281"/>
<polyline fill="none" stroke="#333333" points="804.57,-281 804.57,-275 "/>
<polyline fill="none" stroke="#333333" points="810.57,-275 804.57,-275 "/>
<text text-anchor="middle" x="774.07" y="-266.2" font-family="Arial" font-size="11.00" fill="white">Audit Trail</text>
<text text-anchor="middle" x="774.07" y="-254.2" font-family="Arial" font-size="11.00" fill="white">[JSON Log]</text>
</g>
<!-- Orchestrator&#45;&gt;AuditLog -->
<g id="edge17" class="edge">
<title>Orchestrator&#45;&gt;AuditLog</title>
<path fill="none" stroke="black" stroke-dasharray="5,2" d="M557.33,-263C557.33,-263 727.51,-263 727.51,-263"/>
<polygon fill="black" stroke="black" points="727.51,-266.5 737.51,-263 727.51,-259.5 727.51,-266.5"/>
<text text-anchor="middle" x="611.79" y="-265.8" font-family="Times,serif" font-size="9.00"> JSON Status</text>
</g>
<!-- W_Layout -->
<g id="node4" class="node">
<title>W_Layout</title>
<path fill="#e2a929" stroke="#333333" d="M270,-247C270,-247 204,-247 204,-247 198,-247 192,-241 192,-235 192,-235 192,-223 192,-223 192,-217 198,-211 204,-211 204,-211 270,-211 270,-211 276,-211 282,-217 282,-223 282,-223 282,-235 282,-235 282,-241 276,-247 270,-247"/>
<text text-anchor="middle" x="237" y="-232.2" font-family="Arial" font-size="11.00">Layout&#45;Experte</text>
<text text-anchor="middle" x="237" y="-220.2" font-family="Arial" font-size="11.00">[docling]</text>
</g>
<!-- PluginManager&#45;&gt;W_Layout -->
<g id="edge1" class="edge">
<title>PluginManager&#45;&gt;W_Layout</title>
<path fill="none" stroke="black" stroke-dasharray="1,5" d="M129.07,-196C181.96,-196 252.84,-196 252.84,-196 252.84,-196 252.84,-200.96 252.84,-200.96"/>
<polygon fill="black" stroke="black" points="249.34,-200.96 252.84,-210.96 256.34,-200.96 249.34,-200.96"/>
</g>
<!-- W_Table -->
<g id="node5" class="node">
<title>W_Table</title>
<path fill="#e2a929" stroke="#333333" d="M274,-168C274,-168 200,-168 200,-168 194,-168 188,-162 188,-156 188,-156 188,-144 188,-144 188,-138 194,-132 200,-132 200,-132 274,-132 274,-132 280,-132 286,-138 286,-144 286,-144 286,-156 286,-156 286,-162 280,-168 274,-168"/>
<text text-anchor="middle" x="237" y="-153.2" font-family="Arial" font-size="11.00">Tabellen&#45;Experte</text>
<text text-anchor="middle" x="237" y="-141.2" font-family="Arial" font-size="11.00">[pdfplumber]</text>
</g>
<!-- PluginManager&#45;&gt;W_Table -->
<g id="edge2" class="edge">
<title>PluginManager&#45;&gt;W_Table</title>
<path fill="none" stroke="black" stroke-dasharray="1,5" d="M129.34,-184C171.91,-184 222.84,-184 222.84,-184 222.84,-184 222.84,-178.19 222.84,-178.19"/>
<polygon fill="black" stroke="black" points="226.34,-178.19 222.84,-168.19 219.34,-178.19 226.34,-178.19"/>
</g>
<!-- W_Sig -->
<g id="node6" class="node">
<title>W_Sig</title>
<path fill="#e2a929" stroke="#333333" d="M274,-89C274,-89 200,-89 200,-89 194,-89 188,-83 188,-77 188,-77 188,-65 188,-65 188,-59 194,-53 200,-53 200,-53 274,-53 274,-53 280,-53 286,-59 286,-65 286,-65 286,-77 286,-77 286,-83 280,-89 274,-89"/>
<text text-anchor="middle" x="237" y="-74.2" font-family="Arial" font-size="11.00">Signatur&#45;Experte</text>
<text text-anchor="middle" x="237" y="-62.2" font-family="Arial" font-size="11.00">[yolov8s local]</text>
</g>
<!-- PluginManager&#45;&gt;W_Sig -->
<g id="edge3" class="edge">
<title>PluginManager&#45;&gt;W_Sig</title>
<path fill="none" stroke="black" stroke-dasharray="1,5" d="M72.84,-171.93C72.84,-138.64 72.84,-71 72.84,-71 72.84,-71 177.75,-71 177.75,-71"/>
<polygon fill="black" stroke="black" points="177.75,-74.5 187.75,-71 177.75,-67.5 177.75,-74.5"/>
</g>
<!-- W_Vision -->
<g id="node7" class="node">
<title>W_Vision</title>
<path fill="#e2a929" stroke="#333333" d="M263,-405C263,-405 211,-405 211,-405 205,-405 199,-399 199,-393 199,-393 199,-381 199,-381 199,-375 205,-369 211,-369 211,-369 263,-369 263,-369 269,-369 275,-375 275,-381 275,-381 275,-393 275,-393 275,-399 269,-405 263,-405"/>
<text text-anchor="middle" x="237" y="-390.2" font-family="Arial" font-size="11.00">Bild&#45;Experte</text>
<text text-anchor="middle" x="237" y="-378.2" font-family="Arial" font-size="11.00">[blip]</text>
</g>
<!-- PluginManager&#45;&gt;W_Vision -->
<g id="edge4" class="edge">
<title>PluginManager&#45;&gt;W_Vision</title>
<path fill="none" stroke="black" stroke-dasharray="1,5" d="M44.84,-208.18C44.84,-256.95 44.84,-387 44.84,-387 44.84,-387 188.58,-387 188.58,-387"/>
<polygon fill="black" stroke="black" points="188.58,-390.5 198.58,-387 188.58,-383.5 188.58,-390.5"/>
</g>
<!-- W_Trans -->
<g id="node8" class="node">
<title>W_Trans</title>
<path fill="#e2a929" stroke="#333333" d="M260,-326C260,-326 214,-326 214,-326 208,-326 202,-320 202,-314 202,-314 202,-302 202,-302 202,-296 208,-290 214,-290 214,-290 260,-290 260,-290 266,-290 272,-296 272,-302 272,-302 272,-314 272,-314 272,-320 266,-326 260,-326"/>
<text text-anchor="middle" x="237" y="-311.2" font-family="Arial" font-size="11.00">Übersetzer</text>
<text text-anchor="middle" x="237" y="-299.2" font-family="Arial" font-size="11.00">[nllb&#45;200]</text>
</g>
<!-- PluginManager&#45;&gt;W_Trans -->
<g id="edge5" class="edge">
<title>PluginManager&#45;&gt;W_Trans</title>
<path fill="none" stroke="black" stroke-dasharray="1,5" d="M72.84,-208.18C72.84,-241.28 72.84,-308 72.84,-308 72.84,-308 191.78,-308 191.78,-308"/>
<polygon fill="black" stroke="black" points="191.78,-311.5 201.78,-308 191.78,-304.5 191.78,-311.5"/>
</g>
<!-- W_Layout&#45;&gt;Orchestrator -->
<g id="edge8" class="edge">
<title>W_Layout&#45;&gt;Orchestrator</title>
<path fill="none" stroke="black" d="M282.15,-241.94C282.15,-241.94 377.37,-241.94 377.37,-241.94"/>
<polygon fill="black" stroke="black" points="377.37,-245.44 387.37,-241.94 377.37,-238.44 377.37,-245.44"/>
</g>
<!-- W_Table&#45;&gt;Orchestrator -->
<g id="edge9" class="edge">
<title>W_Table&#45;&gt;Orchestrator</title>
<path fill="none" stroke="black" d="M286.34,-150C339.28,-150 415.84,-150 415.84,-150 415.84,-150 415.84,-226.79 415.84,-226.79"/>
<polygon fill="black" stroke="black" points="412.34,-226.79 415.84,-236.79 419.34,-226.79 412.34,-226.79"/>
</g>
<!-- W_Sig&#45;&gt;Orchestrator -->
<g id="edge10" class="edge">
<title>W_Sig&#45;&gt;Orchestrator</title>
<path fill="none" stroke="black" d="M286.06,-71C358.82,-71 486.84,-71 486.84,-71 486.84,-71 486.84,-226.71 486.84,-226.71"/>
<polygon fill="black" stroke="black" points="483.34,-226.71 486.84,-236.71 490.34,-226.71 483.34,-226.71"/>
</g>
<!-- W_Vision&#45;&gt;Orchestrator -->
<g id="edge11" class="edge">
<title>W_Vision&#45;&gt;Orchestrator</title>
<path fill="none" stroke="black" d="M275.35,-387C323.21,-387 398.84,-387 398.84,-387 398.84,-387 398.84,-299.3 398.84,-299.3"/>
<polygon fill="black" stroke="black" points="402.34,-299.3 398.84,-289.3 395.34,-299.3 402.34,-299.3"/>
</g>
<!-- W_Trans&#45;&gt;Orchestrator -->
<g id="edge12" class="edge">
<title>W_Trans&#45;&gt;Orchestrator</title>
<path fill="none" stroke="black" d="M237.84,-289.62C237.84,-282.08 237.84,-275.09 237.84,-275.09 237.84,-275.09 359.29,-275.09 359.29,-275.09"/>
<polygon fill="black" stroke="black" points="359.29,-278.59 369.29,-275.09 359.29,-271.59 359.29,-278.59"/>
</g>
<!-- Generator -->
<g id="node10" class="node">
<title>Generator</title>
<path fill="#a0522d" stroke="#333333" d="M1104.84,-462C1104.84,-462 1010.84,-462 1010.84,-462 1004.84,-462 998.84,-456 998.84,-450 998.84,-450 998.84,-438 998.84,-438 998.84,-432 1004.84,-426 1010.84,-426 1010.84,-426 1104.84,-426 1104.84,-426 1110.84,-426 1116.84,-432 1116.84,-438 1116.84,-438 1116.84,-450 1116.84,-450 1116.84,-456 1110.84,-462 1104.84,-462"/>
<text text-anchor="middle" x="1057.84" y="-447.2" font-family="Arial" font-size="11.00" fill="white">PDF Generator</text>
<text text-anchor="middle" x="1057.84" y="-435.2" font-family="Arial" font-size="11.00" fill="white">[WeasyPrint Overlay]</text>
</g>
<!-- Repair&#45;&gt;Generator -->
<g id="edge14" class="edge">
<title>Repair&#45;&gt;Generator</title>
<path fill="none" stroke="black" d="M774.84,-459.92C774.84,-458.15 774.84,-457 774.84,-457 774.84,-457 988.52,-457 988.52,-457"/>
<polygon fill="black" stroke="black" points="988.52,-460.5 998.52,-457 988.52,-453.5 988.52,-460.5"/>
<text text-anchor="middle" x="940.34" y="-463.8" font-family="Times,serif" font-size="9.00"> Sanitized DOM</text>
</g>
<!-- Validator -->
<g id="node11" class="node">
<title>Validator</title>
<path fill="#6a0dad" stroke="#333333" d="M1301.84,-422C1301.84,-422 1226.84,-422 1226.84,-422 1220.84,-422 1214.84,-416 1214.84,-410 1214.84,-410 1214.84,-398 1214.84,-398 1214.84,-392 1220.84,-386 1226.84,-386 1226.84,-386 1301.84,-386 1301.84,-386 1307.84,-386 1313.84,-392 1313.84,-398 1313.84,-398 1313.84,-410 1313.84,-410 1313.84,-416 1307.84,-422 1301.84,-422"/>
<text text-anchor="middle" x="1264.34" y="-407.2" font-family="Arial" font-size="11.00" fill="white">Validation</text>
<text text-anchor="middle" x="1264.34" y="-395.2" font-family="Arial" font-size="11.00" fill="white">[VeraPDF offline]</text>
</g>
<!-- Generator&#45;&gt;Validator -->
<g id="edge15" class="edge">
<title>Generator&#45;&gt;Validator</title>
<path fill="none" stroke="black" d="M1116.89,-444C1178.07,-444 1264.84,-444 1264.84,-444 1264.84,-444 1264.84,-432.13 1264.84,-432.13"/>
<polygon fill="black" stroke="black" points="1268.34,-432.13 1264.84,-422.13 1261.34,-432.13 1268.34,-432.13"/>
<text text-anchor="middle" x="1165.84" y="-428.8" font-family="Times,serif" font-size="9.00"> Raw PDF</text>
</g>
<!-- OutputPDF -->
<g id="node13" class="node">
<title>OutputPDF</title>
<path fill="#2b5e8f" stroke="#333333" d="M1492.84,-301C1492.84,-301 1434.84,-301 1434.84,-301 1428.84,-301 1422.84,-295 1422.84,-289 1422.84,-289 1422.84,-277 1422.84,-277 1422.84,-271 1428.84,-265 1434.84,-265 1434.84,-265 1492.84,-265 1492.84,-265 1498.84,-265 1504.84,-271 1504.84,-277 1504.84,-277 1504.84,-289 1504.84,-289 1504.84,-295 1498.84,-301 1492.84,-301"/>
<text text-anchor="middle" x="1463.84" y="-286.2" font-family="Arial" font-size="11.00" fill="white">Barrierefreies</text>
<text text-anchor="middle" x="1463.84" y="-274.2" font-family="Arial" font-size="11.00" fill="white">PDF/UA&#45;1</text>
</g>
<!-- Validator&#45;&gt;OutputPDF -->
<g id="edge16" class="edge">
<title>Validator&#45;&gt;OutputPDF</title>
<path fill="none" stroke="black" d="M1264.84,-385.91C1264.84,-355.47 1264.84,-297.33 1264.84,-297.33 1264.84,-297.33 1412.61,-297.33 1412.61,-297.33"/>
<polygon fill="black" stroke="black" points="1412.61,-300.83 1422.61,-297.33 1412.61,-293.83 1412.61,-300.83"/>
<text text-anchor="middle" x="1368.34" y="-352.8" font-family="Times,serif" font-size="9.00"> Verified PDF</text>
</g>
<!-- VSROut -->
<g id="node15" class="node">
<title>VSROut</title>
<path fill="#2b5e8f" stroke="#333333" d="M1103.34,-349C1103.34,-349 1012.34,-349 1012.34,-349 1006.34,-349 1000.34,-343 1000.34,-337 1000.34,-337 1000.34,-325 1000.34,-325 1000.34,-319 1006.34,-313 1012.34,-313 1012.34,-313 1103.34,-313 1103.34,-313 1109.34,-313 1115.34,-319 1115.34,-325 1115.34,-325 1115.34,-337 1115.34,-337 1115.34,-343 1109.34,-349 1103.34,-349"/>
<text text-anchor="middle" x="1057.84" y="-334.2" font-family="Arial" font-size="11.00" fill="white">Visual Screenreader</text>
<text text-anchor="middle" x="1057.84" y="-322.2" font-family="Arial" font-size="11.00" fill="white">[HTML Vorschau]</text>
</g>
<!-- VSR&#45;&gt;VSROut -->
<g id="edge20" class="edge">
<title>VSR&#45;&gt;VSROut</title>
<path fill="none" stroke="black" d="M858.84,-379.65C858.84,-363.95 858.84,-337.5 858.84,-337.5 858.84,-337.5 990.29,-337.5 990.29,-337.5"/>
<polygon fill="black" stroke="black" points="990.29,-341 1000.29,-337.5 990.29,-334 990.29,-341"/>
</g>
<!-- OutputPDF&#45;&gt;VSR -->
<g id="edge19" class="edge">
<title>OutputPDF&#45;&gt;VSR</title>
<path fill="none" stroke="black" d="M1422.57,-293.67C1282.64,-293.67 834.84,-293.67 834.84,-293.67 834.84,-293.67 834.84,-357.93 834.84,-357.93"/>
<polygon fill="black" stroke="black" points="831.34,-357.93 834.84,-367.93 838.34,-357.93 831.34,-357.93"/>
<text text-anchor="middle" x="1165.84" y="-250.8" font-family="Times,serif" font-size="9.00"> Read Tags</text>
</g>
</g>
</svg>
